<svg width="200" height="100" viewBox="0 0 200 100" fill="none" xmlns="http://www.w3.org/2000/svg">
<g clip-path="url(#clip0_69_447)">
<path opacity="0.5" fill-rule="evenodd" clip-rule="evenodd" d="M42.4999 35L66.6999 49H79.9999C79.3999 32.9 66.1999 20 49.9999 20C44.8999 20 40.0999 21.3 35.8999 23.5L42.4999 35ZM40.8 36.0002L34.1 24.5002C25.7 29.8002 20 39.3002 20 50.0002C20 60.7002 25.7 70.2002 34.1 75.5002L40.8 64.0002V36.0002ZM42.4999 65L66.6999 51H79.9999C79.3999 67.1 66.1999 80 49.9999 80C44.8999 80 40.0999 78.8 35.8999 76.5L42.4999 65Z" fill="white"/>
<path fill-rule="evenodd" clip-rule="evenodd" d="M142.5 35L166.7 49H180C179.4 32.9 166.2 20 150 20C144.9 20 140.1 21.3 135.9 23.5L142.5 35ZM140.8 36.0002L134.1 24.5002C125.7 29.8002 120 39.3002 120 50.0002C120 60.7002 125.7 70.2002 134.1 75.5002L140.8 64.0002V36.0002ZM142.5 65L166.7 51H180C179.4 67.1 166.2 80 150 80C144.9 80 140.1 78.8 135.9 76.5L142.5 65Z" fill="white"/>
</g>
<defs>
<clipPath id="clip0_69_447">
<rect width="200" height="100" fill="white"/>
</clipPath>
</defs>
</svg>
