<svg width="200" height="100" viewBox="0 0 200 100" fill="none" xmlns="http://www.w3.org/2000/svg">
<path fill-rule="evenodd" clip-rule="evenodd" d="M157.5 65L133.3 51L120 51C120.6 67.1 133.8 80 150 80C155.1 80 159.9 78.7 164.1 76.5L157.5 65ZM159.2 63.9998L165.9 75.4998C174.3 70.1998 180 60.6998 180 49.9998C180 39.2998 174.3 29.7998 165.9 24.4998L159.2 35.9998L159.2 63.9998ZM157.5 35L133.3 49L120 49C120.6 32.9 133.8 20 150 20C155.1 20 159.9 21.2 164.1 23.5L157.5 35Z" fill="white"/>
<g opacity="0.5">
<path fill-rule="evenodd" clip-rule="evenodd" d="M57.5001 65L33.3001 51L20.0001 51C20.6001 67.1 33.8001 80 50.0001 80C55.1001 80 59.9001 78.7 64.1001 76.5L57.5001 65ZM59.2 63.9998L65.9 75.4998C74.3 70.1998 80 60.6998 80 49.9998C80 39.2998 74.3 29.7998 65.9 24.4998L59.2 35.9998L59.2 63.9998ZM57.5001 35L33.3001 49L20.0001 49C20.6001 32.9 33.8001 20 50.0001 20C55.1001 20 59.9001 21.2 64.1001 23.5L57.5001 35Z" fill="white"/>
</g>
</svg>
