<svg width="200" height="108" viewBox="0 0 200 108" fill="none" xmlns="http://www.w3.org/2000/svg">
<rect width="200" height="48" transform="translate(0 3)" fill="black" fill-opacity="0.15"/>
<path opacity="0.5" fill-rule="evenodd" clip-rule="evenodd" d="M95.2503 17.5L110.577 26.3667H119C118.62 16.17 110.26 8 100 8C96.7703 8 93.7303 8.82333 91.0703 10.2167L95.2503 17.5ZM94.1734 18.1333L89.93 10.85C84.61 14.2067 81 20.2234 81 27C81 33.7767 84.61 39.7934 89.93 43.1501L94.1734 35.8667V18.1333ZM95.2503 36.5L110.577 27.6334H119C118.62 37.83 110.26 46.0001 100 46.0001C96.7703 46.0001 93.7303 45.2401 91.0703 43.7834L95.2503 36.5Z" fill="white"/>
<rect width="200" height="48" transform="translate(0 57)" fill="#FF6B00"/>
<path opacity="0.5" fill-rule="evenodd" clip-rule="evenodd" d="M95.2503 71.5L110.577 80.3667H119C118.62 70.17 110.26 62 100 62C96.7703 62 93.7303 62.8233 91.0703 64.2167L95.2503 71.5ZM94.1734 72.1333L89.93 64.85C84.61 68.2067 81 74.2234 81 81C81 87.7767 84.61 93.7934 89.93 97.1501L94.1734 89.8667L94.1734 72.1333ZM95.2503 90.5L110.577 81.6334H119C118.62 91.83 110.26 100 100 100C96.7703 100 93.7303 99.2401 91.0703 97.7834L95.2503 90.5Z" fill="white"/>
</svg>
