<svg width="200" height="108" viewBox="0 0 200 108" fill="none" xmlns="http://www.w3.org/2000/svg">
<rect width="200" height="48" transform="translate(0 3)" fill="black" fill-opacity="0.15"/>
<path opacity="0.5" fill-rule="evenodd" clip-rule="evenodd" d="M104.75 36.5L89.4235 27.6334L81.0002 27.6334C81.3802 37.83 89.7402 46.0001 100 46.0001C103.23 46.0001 106.27 45.1767 108.93 43.7834L104.75 36.5ZM105.827 35.8667L110.07 43.1501C115.39 39.7934 119 33.7767 119 27C119 20.2234 115.39 14.2067 110.07 10.85L105.827 18.1333L105.827 35.8667ZM104.75 17.5L89.4235 26.3667L81.0002 26.3667C81.3802 16.17 89.7402 8 100 8C103.23 8 106.27 8.76 108.93 10.2167L104.75 17.5Z" fill="white"/>
<rect width="200" height="48" transform="translate(0 57)" fill="#FF6B00"/>
<path opacity="0.5" fill-rule="evenodd" clip-rule="evenodd" d="M104.75 90.5L89.4235 81.6334L81.0002 81.6334C81.3802 91.83 89.7402 100 100 100C103.23 100 106.27 99.1767 108.93 97.7834L104.75 90.5ZM105.827 89.8667L110.07 97.1501C115.39 93.7934 119 87.7767 119 81C119 74.2234 115.39 68.2067 110.07 64.85L105.827 72.1333L105.827 89.8667ZM104.75 71.5L89.4235 80.3667L81.0002 80.3667C81.3802 70.17 89.7402 62 100 62C103.23 62 106.27 62.76 108.93 64.2167L104.75 71.5Z" fill="white"/>
</svg>
