<svg width="100" height="20" viewBox="0 0 100 20" fill="none" xmlns="http://www.w3.org/2000/svg">
<path d="M10.4819 3.2824L12.2309 6.74928C12.2957 6.90831 12.4576 7.00373 12.6519 7.03553L16.5385 7.57624C16.992 7.63985 17.1539 8.18056 16.83 8.49862L14.0122 11.2021C13.8827 11.3294 13.8179 11.4884 13.8503 11.6792L14.5305 15.496C14.5952 15.9413 14.1418 16.2593 13.7531 16.0685L10.2552 14.2555C10.0933 14.1601 9.89892 14.1601 9.73698 14.2555L6.23904 16.0685C5.85038 16.2593 5.36456 15.9413 5.46172 15.496L6.14188 11.6792C6.17426 11.5202 6.10949 11.3294 5.97993 11.2021L3.16215 8.53043C2.83827 8.21236 3.0326 7.67166 3.45364 7.60805L7.34024 7.06734C7.50219 7.03553 7.66413 6.94011 7.76129 6.78108L9.51026 3.31421C9.70459 2.90072 10.2876 2.90072 10.4819 3.2824Z" fill="black" stroke="black" stroke-miterlimit="10"/>
<path d="M30.4819 3.2824L32.2309 6.74928C32.2957 6.90831 32.4576 7.00373 32.6519 7.03553L36.5385 7.57624C36.992 7.63985 37.1539 8.18056 36.83 8.49862L34.0122 11.2021C33.8827 11.3294 33.8179 11.4884 33.8503 11.6792L34.5305 15.496C34.5952 15.9413 34.1418 16.2593 33.7531 16.0685L30.2552 14.2555C30.0933 14.1601 29.8989 14.1601 29.737 14.2555L26.239 16.0685C25.8504 16.2593 25.3646 15.9413 25.4617 15.496L26.1419 11.6792C26.1743 11.5202 26.1095 11.3294 25.9799 11.2021L23.1621 8.53043C22.8383 8.21236 23.0326 7.67166 23.4536 7.60805L27.3402 7.06734C27.5022 7.03553 27.6641 6.94011 27.7613 6.78108L29.5103 3.31421C29.7046 2.90072 30.2876 2.90072 30.4819 3.2824Z" fill="black" stroke="black" stroke-miterlimit="10"/>
<path d="M50.4819 3.2824L52.2309 6.74928C52.2957 6.90831 52.4576 7.00373 52.6519 7.03553L56.5385 7.57624C56.992 7.63985 57.1539 8.18056 56.83 8.49862L54.0122 11.2021C53.8827 11.3294 53.8179 11.4884 53.8503 11.6792L54.5305 15.496C54.5952 15.9413 54.1418 16.2593 53.7531 16.0685L50.2552 14.2555C50.0933 14.1601 49.8989 14.1601 49.737 14.2555L46.239 16.0685C45.8504 16.2593 45.3646 15.9413 45.4617 15.496L46.1419 11.6792C46.1743 11.5202 46.1095 11.3294 45.9799 11.2021L43.1621 8.53043C42.8383 8.21236 43.0326 7.67166 43.4536 7.60805L47.3402 7.06734C47.5022 7.03553 47.6641 6.94011 47.7613 6.78108L49.5103 3.31421C49.7046 2.90072 50.2876 2.90072 50.4819 3.2824Z" fill="black" stroke="black" stroke-miterlimit="10"/>
<path d="M70.4819 3.2824L72.2309 6.74928C72.2957 6.90831 72.4576 7.00373 72.6519 7.03553L76.5385 7.57624C76.992 7.63985 77.1539 8.18056 76.83 8.49862L74.0122 11.2021C73.8827 11.3294 73.8179 11.4884 73.8503 11.6792L74.5305 15.496C74.5952 15.9413 74.1418 16.2593 73.7531 16.0685L70.2552 14.2555C70.0933 14.1601 69.8989 14.1601 69.737 14.2555L66.239 16.0685C65.8504 16.2593 65.3646 15.9413 65.4617 15.496L66.1419 11.6792C66.1743 11.5202 66.1095 11.3294 65.9799 11.2021L63.1621 8.53043C62.8383 8.21236 63.0326 7.67166 63.4536 7.60805L67.3402 7.06734C67.5022 7.03553 67.6641 6.94011 67.7613 6.78108L69.5103 3.31421C69.7046 2.90072 70.2876 2.90072 70.4819 3.2824Z" fill="black" stroke="black" stroke-miterlimit="10"/>
<path d="M90.4819 3.2824L92.2309 6.74928C92.2957 6.90831 92.4576 7.00373 92.6519 7.03553L96.5385 7.57624C96.992 7.63985 97.1539 8.18056 96.83 8.49862L94.0122 11.2021C93.8827 11.3294 93.8179 11.4884 93.8503 11.6792L94.5305 15.496C94.5952 15.9413 94.1418 16.2593 93.7531 16.0685L90.2552 14.2555C90.0933 14.1601 89.8989 14.1601 89.737 14.2555L86.239 16.0685C85.8504 16.2593 85.3646 15.9413 85.4617 15.496L86.1419 11.6792C86.1743 11.5202 86.1095 11.3294 85.9799 11.2021L83.1621 8.53043C82.8383 8.21236 83.0326 7.67166 83.4536 7.60805L87.3402 7.06734C87.5022 7.03553 87.6641 6.94011 87.7613 6.78108L89.5103 3.31421C89.7046 2.90072 90.2876 2.90072 90.4819 3.2824Z" fill="black" stroke="black" stroke-miterlimit="10"/>
</svg>
