<?xml version="1.0" encoding="utf-8"?>
<!-- Generator: Adobe Illustrator 27.8.1, SVG Export Plug-In . SVG Version: 6.00 Build 0)  -->
<svg version="1.1" id="Слой_1" xmlns="http://www.w3.org/2000/svg" xmlns:xlink="http://www.w3.org/1999/xlink" x="0px" y="0px"
	 viewBox="0 0 105 105" style="enable-background:new 0 0 105 105;" xml:space="preserve">
<style type="text/css">
	.st0{clip-path:url(#SVGID_00000175316103133008197670000015679314909252856236_);}
	.st1{fill:none;stroke:#000000;stroke-width:2;stroke-linecap:round;stroke-miterlimit:10;}
	.st2{fill:#8C9091;}
	.st3{fill:#FFFFFF;}
	.st4{fill:none;stroke:#FFFFFF;stroke-width:0.8;}
	.st5{fill:#F5333F;}
	.st6{fill:#003DA6;}
	.st7{fill:#005FAA;}
	.st8{fill:#E63329;}
	.st9{fill:#1D1D1B;}
	.st10{fill:#606060;}
</style>
<g>
	<defs>
		<rect id="SVGID_1_" y="0" width="105" height="105"/>
	</defs>
	<clipPath id="SVGID_00000158731536125372622390000013189981755247146429_">
		<use xlink:href="#SVGID_1_"  style="overflow:visible;"/>
	</clipPath>
	<g style="clip-path:url(#SVGID_00000158731536125372622390000013189981755247146429_);">
		<path d="M94.8,95.3l-3.2-3.1l0.9-0.9l-3.9-3.9l-1.1-6.8l-1.8-1.8c5.7-7.2,9.2-16.3,9.2-26.4c0-7.5-2-14.7-5.6-21l9.9-9.9
			c0.9-0.9,0.9-2.2,0-3.1l-8.6-8.6c-0.9-0.9-2.2-0.9-3.1,0l-9,9c-7.2-5.7-16.3-9.2-26.4-9.2c-9.9,0-19,3.4-26.4,9.2l-9-9
			c-0.9-0.9-2.2-0.9-3.1,0L5,18.5c-0.9,0.9-0.9,2.2,0,3.1l9.9,9.9c-2.9,6.3-5,13.5-5,21c0,9.9,3.4,19,9.2,26.4l-1.8,1.8l-1.1,6.8
			l-3.9,3.9l0.9,0.9l-3.2,3.2c-1.3,1.3-1.4,3.2-0.4,4.1c1.1,1.1,2.9,0.9,4.1-0.4l3.2-3.2l0.9,0.9l3.9-3.9l6.8-1.1l2.7-2.7
			c6.1,3.6,13.3,5.6,21,5.6c7.5,0,14.7-2,21-5.6l2.7,2.7l6.8,1.1l3.9,3.9l0.9-0.9l3.2,3.2c1.3,1.3,3.1,1.4,4.1,0.4
			C96.2,98.5,96,96.7,94.8,95.3z"/>
		<path class="st1" d="M95.7,80.2c5.2-8.1,8.3-17.6,8.3-27.8c0-7.5-1.6-14.7-4.5-21.2 M5.6,31.4c-2.9,6.5-4.5,13.5-4.5,21
			c0,10.2,3.1,19.7,8.3,27.8 M31.4,99.3c6.5,2.9,13.6,4.7,21.2,4.7c7.5,0,14.7-1.6,21.2-4.7 M80.2,9.3c-7.9-5.2-17.4-8.3-27.8-8.3
			C42,1.1,32.7,4.1,24.6,9.3"/>
		<path d="M63,56c0,0.5,0,0.9-0.2,1.3C62.8,56.9,63,56.5,63,56z M52.2,52.8c-1.1,1.4-2.9,2.3-4.7,2.3C49.4,55.1,51.3,54.2,52.2,52.8
			z M57.3,49.9c-2,0-3.8,0.9-4.8,2.5C53.5,50.8,55.5,49.9,57.3,49.9z M42.2,47.6c0,0.4-0.2,0.9-0.2,1.3C42,48.5,42,47.9,42.2,47.6z"
			/>
		<path class="st2" d="M37.3,27.3l-1.3,0.9l-1.8-2.5l-2.2,1.8l1.8,2.3l-1.1,0.9l-4.5-5.6l1.3-0.9l1.6,2.3l2.3-1.8l-1.8-2.2l1.1-0.9
			L37.3,27.3z"/>
		<path class="st2" d="M36.4,19.8l-1.3,0.7l3.2,6.2l1.3-0.7L36.4,19.8z"/>
		<path class="st2" d="M46.1,19.9c-0.2-0.7-0.4-1.3-0.7-1.6c-0.4-0.4-0.7-0.4-1.3-0.4c-0.5,0.2-0.7,0.4-0.9,0.9
			c-0.2,0.4-0.2,1.1,0,1.8V21c0.2,0.7,0.4,1.3,0.7,1.6c0.4,0.4,0.7,0.4,1.3,0.4c0.5-0.2,0.7-0.4,0.9-0.9c0.2-0.4,0.2-1.1,0-1.8V19.9
			z M47.6,19.9c0.2,0.7,0.2,1.3,0,1.8c-0.2,0.5-0.4,0.9-0.5,1.3l1.4,0.7l-0.7,1.1l-1.8-0.9c-0.2,0-0.4,0.2-0.5,0.2
			c-0.5,0.2-1.1,0.2-1.6,0c-0.5-0.2-0.9-0.5-1.3-0.9c-0.4-0.5-0.5-1.1-0.7-1.6v-0.4c-0.2-0.7-0.2-1.3,0-1.8c0.2-0.5,0.4-1.1,0.7-1.4
			c0.4-0.4,0.9-0.7,1.4-0.7c0.5-0.2,1.1-0.2,1.6,0c0.5,0.2,0.9,0.5,1.3,0.9c0.4,0.5,0.5,1.1,0.7,1.6V19.9z"/>
		<path class="st2" d="M54.4,16l0.2,4.7c0,0.7-0.2,1.4-0.7,1.8c-0.5,0.5-1.1,0.7-2,0.7s-1.4-0.2-2-0.5c-0.5-0.4-0.7-1.1-0.7-1.8
			L49,16.2h1.4l0.2,4.7c0,0.5,0.2,0.7,0.4,1.1c0.2,0.2,0.5,0.4,0.9,0.4c0.9,0,1.3-0.5,1.3-1.3l-0.2-4.7L54.4,16z"/>
		<path class="st2" d="M57.8,21l1.8,0.4l-0.4-2.7L57.8,21z M59.8,22.6l-2.5-0.5l-0.7,1.4l-1.4-0.4l3.8-6.5l1.3,0.2l1.4,7.4l-1.4-0.4
			L59.8,22.6z"/>
		<path class="st2" d="M63.5,24.1l2.9,1.1l-0.4,1.1l-4.3-1.6l2.7-6.6l1.3,0.5L63.5,24.1z"/>
		<path class="st2" d="M68,27.5l-1.3-0.7l3.4-6.1l1.4,0.7L68,27.5z"/>
		<path class="st2" d="M76.5,26.7l-1.6-1.3l-3.6,4.7L70,29.1l3.8-4.5L72,23.2l0.7-0.9l4.5,3.6L76.5,26.7z"/>
		<path class="st2" d="M77.9,31.1l3.4-1.1l1.1,1.3l-4.8,1.3l-2,1.6L74.5,33l2-1.8l2-4.7l0.9,1.3L77.9,31.1z"/>
		<path class="st2" d="M26.4,66.4L23,70.7l5.4-1.3l1.1,1.6l-6.1,3.8l-0.7-1.3l1.6-1.1l2.9-1.6l-5.4,1.3l-0.5-0.9l3.4-4.5l-2.9,2
			l-1.6,1.1l-0.7-1.3l5.9-3.8L26.4,66.4z"/>
		<path class="st2" d="M27.6,75.9l1.3,1.3l1.3-2.5L27.6,75.9z M28.4,78.3l-1.8-1.8l-1.4,0.9l-1.1-1.1l6.8-3.2l0.9,0.9l-2.9,6.8
			l-1.1-1.1L28.4,78.3z"/>
		<path class="st2" d="M34.5,77.7l-2.5,3.9l0.5,0.4c0.5,0.4,0.9,0.4,1.4,0.2c0.5-0.2,0.9-0.5,1.3-1.1l0.2-0.4
			c0.4-0.5,0.5-1.1,0.5-1.6c0-0.5-0.4-0.9-0.7-1.3L34.5,77.7z M30,81.8l3.8-5.9l1.8,1.3c0.5,0.4,0.9,0.7,1.3,1.3
			c0.2,0.5,0.4,1.1,0.4,1.6c0,0.5-0.2,1.1-0.5,1.8l-0.2,0.4c-0.4,0.5-0.7,0.9-1.3,1.3c-0.5,0.4-1.1,0.4-1.6,0.4
			c-0.5,0-1.1-0.2-1.6-0.5L30,81.8z"/>
		<path class="st2" d="M41.3,84.2l-2.5-0.9l-0.7,1.8l3.1,1.1l-0.4,1.1l-4.5-1.6l2.7-6.6l4.3,1.8l-0.4,1.1l-3.1-1.3l-0.7,1.6l2.7,1.1
			L41.3,84.2z"/>
		<path class="st2" d="M46.8,81.8l-1.2,6.9l1.4,0.3l1.2-6.9L46.8,81.8z"/>
		<path class="st2" d="M54.7,89.2h-1.4l-2.7-4.7l-0.2,4.7H49l0.2-7.2h1.4l2.7,4.8l0.2-4.7h1.4L54.7,89.2z"/>
		<path class="st2" d="M61.7,85.3l-0.5,0.9l0.5,2l-1.4,0.4l-2-6.8l1.4-0.4l0.9,3.1l0.4-0.9l1.1-2.9l1.8-0.4l-1.6,3.6l3.6,3.1
			l-1.6,0.5L61.7,85.3z"/>
		<path class="st2" d="M69.1,80.9c-0.4-0.7-0.7-1.1-1.1-1.3c-0.4-0.2-0.9-0.2-1.3,0c-0.4,0.2-0.7,0.5-0.7,1.1c0,0.5,0,1.1,0.4,1.6
			l0.2,0.4c0.4,0.7,0.7,1.1,1.1,1.3c0.4,0.2,0.9,0.2,1.3,0c0.4-0.2,0.7-0.5,0.7-1.1c0-0.5,0-1.1-0.4-1.6L69.1,80.9z M70.5,80.6
			c0.4,0.5,0.5,1.3,0.5,1.8c0,0.5-0.2,1.1-0.4,1.6c-0.4,0.5-0.7,0.9-1.3,1.1c-0.5,0.2-1.1,0.4-1.6,0.4s-1.1-0.2-1.4-0.5
			c-0.5-0.4-0.9-0.9-1.1-1.4l-0.2-0.4c-0.4-0.5-0.5-1.3-0.5-1.8s0.2-1.1,0.4-1.6c0.4-0.5,0.7-0.9,1.3-1.1c0.5-0.4,1.1-0.4,1.6-0.4
			s1.1,0.2,1.4,0.5c0.5,0.4,0.9,0.9,1.3,1.4V80.6z"/>
		<path class="st2" d="M72.3,78.8l0.9-0.7c0.4-0.2,0.4-0.5,0.5-0.7c0-0.4,0-0.5-0.4-0.7c-0.2-0.2-0.5-0.4-0.7-0.4s-0.5,0.2-0.9,0.4
			l-0.9,0.5L72.3,78.8z M73.9,79l-0.9,0.7l1.6,2l-1.1,0.9l-4.7-5.4l2-1.8c0.7-0.5,1.3-0.9,1.8-0.9c0.5,0,1.1,0.2,1.6,0.7
			c0.4,0.4,0.5,0.7,0.5,1.1c0,0.4,0,0.7-0.2,1.3l3.1,1.3l-1.3,1.1L73.9,79z"/>
		<path class="st2" d="M79.3,72.7l-1.8,2.2l1.4,1.3l2.2-2.5l0.9,0.7l-3.2,3.6l-5.2-4.7l3.1-3.6l0.9,0.9l-2.2,2.3l1.3,1.3l1.8-2.2
			L79.3,72.7z"/>
		<path class="st2" d="M81.8,70.2l0.9-1.6L80.1,68L81.8,70.2z M83.8,68.9l-1.3,2.2l1.1,1.1l-0.7,1.4l-4.8-5.7l0.7-1.3l7.5,1.3
			l-0.7,1.4L83.8,68.9z"/>
		<path class="st3" d="M52.4,76.8c13.5,0,24.4-10.9,24.4-24.4C76.8,38.9,65.9,28,52.4,28C38.9,28,28,38.9,28,52.4
			C28.2,65.9,38.9,76.8,52.4,76.8z"/>
		<path class="st4" d="M52.4,77C65.9,77,77,66.1,77,52.4c0-13.5-10.9-24.6-24.6-24.6c-13.6,0-24.6,10.9-24.6,24.6
			C28,66.1,38.9,77,52.4,77z"/>
		<path d="M41.8,64.8l1.3-1.3L37,57.4l-1.3,1.3L41.8,64.8z M37.5,61.7L35,59.2l-1.3,1.3l2.5,2.5L37.5,61.7z M39.5,67.3L33.2,61
			l-1.3,1.3l6.3,6.3L39.5,67.3z M40,66.8l1.3-1.3L38.8,63l-1.3,1.3L40,66.8z M71.8,43.8l1.3-1.3L70.5,40l-1.3,1.3L71.8,43.8z M63,40
			l-1.3,1.3l2.5,2.5l1.3-1.3L63,40z M66.8,43.8l-1.3,1.3l2.5,2.5l1.3-1.3L66.8,43.8z M65.5,37.7l2.5,2.5l1.3-1.3l-2.5-2.5L65.5,37.7
			z M63.7,39.5l6.3,6.3l1.3-1.3L65,38.2L63.7,39.5z M37,47.6l6.1-6.3L41.8,40l-6.3,6.3L37,47.6z M35,45.6l6.3-6.1L40,38.2l-6.3,6.3
			L35,45.6z M33.2,43.8l6.3-6.1l-1.3-1.3l-6.3,6.3L33.2,43.8z M64.3,61.2l-2.5,2.5L63,65l2.5-2.5L64.3,61.2z M66.2,63l-2.5,2.5
			l1.3,1.3l2.5-2.5L66.2,63z M68,64.8l-2.5,2.5l1.3,1.3l2.5-2.5L68,64.8z M66.8,61.2l2.5-2.5L68,57.4l-2.5,2.5L66.8,61.2z
			 M71.1,60.5l-1.3-1.3l-2.5,2.5l1.3,1.3L71.1,60.5z M69.3,63.5l1.3,1.3l2.5-2.5l-1.3-1.1L69.3,63.5z"/>
	</g>
</g>
<g>
	<path class="st5" d="M46.8,55.1c2.6,0,3.8-1.3,4.9-2.5c0.2-0.2,0.4-0.4,0.5-0.6c0.1-0.1,0.3-0.3,0.4-0.5c1.2-1.2,2.8-2.9,5.9-2.9
		c2.1,0,3.8,1.2,5.1,2.7c-0.6-5.6-5.3-10-11-10c-5.8,0-10.6,4.5-11,10.2C42.9,53.4,44.6,55.1,46.8,55.1z"/>
	<path class="st6" d="M58.6,49.9c-2.6,0-3.9,1.4-5,2.5c-0.2,0.2-0.3,0.3-0.5,0.5c-0.2,0.2-0.3,0.3-0.5,0.5c-1.1,1.2-2.7,2.8-5.8,2.8
		c-2.1,0-3.8-1.2-5.1-2.7c0.6,5.6,5.3,10,11,10c5.8,0,10.6-4.5,11-10.2C62.5,51.6,60.8,49.9,58.6,49.9z"/>
</g>
<path class="st2" d="M16,44.7l1.5-0.2c0.3,0,0.6-0.3,0.7-0.6l0.3-1.5c0.1-0.7,1.1-0.9,1.5-0.2l0.7,1.3c0.1,0.3,0.5,0.5,0.8,0.4
	l1.5-0.2c0.7-0.1,1.2,0.8,0.7,1.3l-1.1,1c-0.2,0.2-0.3,0.6-0.2,0.9l0.7,1.3c0.3,0.7-0.4,1.4-1.1,1l-1.3-0.7
	c-0.3-0.2-0.7-0.1-0.9,0.1l-1.1,1c-0.5,0.5-1.4,0-1.3-0.7l0.3-1.5c0.1-0.3-0.1-0.7-0.4-0.8l-1.3-0.7C15.1,45.8,15.3,44.8,16,44.7z"
	/>
<path class="st2" d="M89,44.7l-1.5-0.2c-0.3,0-0.6-0.3-0.7-0.6l-0.3-1.5c-0.1-0.7-1.1-0.9-1.5-0.2l-0.7,1.3C84.3,43.9,84,44,83.7,44
	l-1.5-0.2c-0.7-0.1-1.2,0.8-0.7,1.3l1.1,1c0.2,0.2,0.3,0.6,0.2,0.9l-0.7,1.3c-0.3,0.7,0.4,1.4,1.1,1l1.3-0.7
	c0.3-0.2,0.7-0.1,0.9,0.1l1.1,1c0.5,0.5,1.4,0,1.3-0.7l-0.3-1.5c-0.1-0.3,0.1-0.7,0.4-0.8l1.3-0.7C89.9,45.8,89.7,44.8,89,44.7z"/>
<g>
	<path class="st7" d="M-55.7,54c-1.7-1.7-4.8-1.2-6.1,0.8c-1.2,2-4.4,2.5-6.1,0.8c-1.4-1.3-1.5-3.1-1.3-4.3
		c-0.5,1.1-0.8,2.2-0.8,3.5c0,4.5,3.7,8.2,8.2,8.2c3.3,0,6.1-1.9,7.4-4.7C-54.3,57.1-54.4,55.4-55.7,54"/>
	<path class="st8" d="M-61.8,46.7c-3.3,0-6.1,1.9-7.4,4.7c0,0.3-0.1,0.6-0.1,0.9c0,1.1,0.3,2.4,1.4,3.4c0.7,0.7,1.6,1,2.6,1
		c0,0,0,0,0,0c0,0,0,0,0,0c1.3,0,2.6-0.6,3.3-1.7c0,0,0-0.1,0.1-0.1c0,0,0-0.1,0.1-0.1c0.7-1.2,2.1-1.8,3.5-1.8h0h0
		c0.9,0,1.8,0.3,2.5,0.9c0,0,0,0,0,0c0,0,0,0,0,0c0,0,0,0,0,0c0,0,0,0,0,0c0,0,0,0,0,0c0,0,0,0,0,0c1.1,1,1.4,2.3,1.4,3.4
		c0,0.3,0,0.6-0.1,0.9c0.5-1.1,0.8-2.2,0.8-3.5C-53.7,50.3-57.3,46.7-61.8,46.7"/>
</g>
<path class="st9" d="M-48.4,63.7l1,1l2-2l-1-1L-48.4,63.7z M-47,61.3l-1-1l-2,2l1,1L-47,61.3z M-48,49.4l1-1l-2-2l-1,1L-48,49.4z
	 M-50.4,61.8l2-2l-1-1l-2,2L-50.4,61.8z M-49.4,64.7l-2,2l1,1l2-2L-49.4,64.7z M-50.9,63.2l-2,2l1,1l2-2L-50.9,63.2z M-52.4,61.8
	l-2,2l1,1l2-2L-52.4,61.8z M-76.7,61.3l5,5l1-1l-5-5L-76.7,61.3z M-75.2,59.8l2,2l1-1l-2-2L-75.2,59.8z M-74.2,64.7l-1,1l2,2l1-1
	L-74.2,64.7z M-77.2,61.8l-1,1l2,2l1-1L-77.2,61.8z M-77.2,47.9l5-4.9l-1-1l-5,5L-77.2,47.9z M-75.7,49.4l5-5l-1-1l-5,5L-75.7,49.4z
	 M-74.2,50.9l5-5l-1-1l-5,5L-74.2,50.9z M-70.3,64.7l1-1l-2-2l-1,1L-70.3,64.7z M-48.4,49.9l-5-5l-1,1l4.9,5L-48.4,49.9z
	 M-49.9,45.5l-2-2l-1,1l2,2L-49.9,45.5z M-46.5,47.9l1-1l-5-5l-1,1L-46.5,47.9z"/>
<g>
	<polygon class="st9" points="-80.6,74.5 -79.6,72.5 -81.6,73.6 	"/>
	<path class="st9" d="M-48.6,77.7c-0.3-0.5-0.6-0.9-0.9-1.1c-0.3-0.2-0.7-0.2-1,0c-0.3,0.2-0.5,0.5-0.6,0.8
		c-0.1,0.4,0.1,0.8,0.3,1.3l0.1,0.2c0.3,0.5,0.6,0.9,0.9,1.1c0.3,0.2,0.7,0.2,1,0c0.3-0.2,0.5-0.5,0.6-0.8c0-0.4-0.1-0.8-0.3-1.3
		L-48.6,77.7z"/>
	<path class="st9" d="M-45.8,73.8c-0.2,0-0.4,0.1-0.7,0.3l-0.7,0.6l1.1,1.3l0.7-0.6c0.2-0.2,0.3-0.4,0.4-0.6c0-0.2,0-0.4-0.2-0.6
		C-45.4,73.9-45.6,73.8-45.8,73.8z"/>
	<polygon class="st9" points="-56.6,27.7 -57.7,29.6 -56.3,29.9 	"/>
	<path class="st9" d="M-24.4,27.8l-6.9-6.8c-0.7-0.7-1.7-0.7-2.4,0l-7.2,7.2c-5.8-4.6-13.1-7.3-21-7.3c-7.9,0-15.2,2.7-21,7.3
		L-90,21c-0.7-0.7-1.7-0.7-2.4,0l-6.9,6.8c-0.7,0.7-0.7,1.7,0,2.4l7.9,7.9c-2.8,4.9-4.4,10.6-4.4,16.7c0,7.9,2.7,15.2,7.3,21
		l-1.4,1.4l0,0l-0.8,5.4l-3.1,3.1l0.8,0.8l-2.5,2.5l0,0c-1,1-1.1,2.5-0.3,3.3c0.8,0.8,2.3,0.7,3.3-0.3l0,0l2.5-2.5l0.8,0.8l3.1-3.1
		l5.4-0.8l0,0l2.1-2.1c4.9,2.8,10.6,4.4,16.7,4.4c6.1,0,11.8-1.6,16.7-4.4l2.1,2.1l0,0l5.4,0.8l3.1,3.1l0.8-0.8l2.5,2.5l0,0
		c1,1,2.5,1.1,3.3,0.3c0.8-0.8,0.7-2.3-0.3-3.3l0,0l-2.5-2.5l0.8-0.8l-3.1-3.1l-0.8-5.4l0,0l-1.4-1.4c4.6-5.8,7.3-13.1,7.3-21
		c0-6.1-1.6-11.8-4.4-16.7l7.9-7.9C-23.7,29.6-23.7,28.5-24.4,27.8z M-40.3,35.2l-1.2,2.5l2.7-0.8l0.8,1l-3.9,1l-1.5,1.3l-0.8-0.9
		l1.5-1.3l1.5-3.8L-40.3,35.2z M-41.3,54.8c0,11.4-9.2,20.6-20.6,20.6c-11.4,0-20.6-9.2-20.6-20.6c0-11.4,9.2-20.6,20.6-20.6
		C-50.5,34.3-41.3,43.5-41.3,54.8z M-45.6,30.6l3.6,2.8l-0.6,0.7l-1.4-1.1l-2.9,3.7l-0.9-0.7l2.9-3.7l-1.3-1.1L-45.6,30.6z
		 M-47.7,29.4l1,0.6l-2.8,4.9l-1-0.6L-47.7,29.4z M-52.3,27.3l1.1,0.4l-1.7,4.4l2.3,0.9l-0.3,0.9l-3.4-1.3L-52.3,27.3z M-56.9,26.2
		l1.1,0.2l1.1,5.9l-1.2-0.2l-0.2-1.2l-2-0.4l-0.6,1.1l-1.2-0.2L-56.9,26.2z M-63.5,25.8l0.1,3.7c0,0.4,0.1,0.6,0.3,0.8
		c0.2,0.2,0.4,0.2,0.7,0.2c0.7,0,1-0.4,1-1.1l-0.1-3.8l1.2,0l0.1,3.7c0,0.6-0.2,1.1-0.5,1.5c-0.4,0.4-0.9,0.6-1.6,0.6
		c-0.7,0-1.2-0.1-1.6-0.5c-0.4-0.3-0.6-0.8-0.6-1.4l-0.1-3.8L-63.5,25.8z M-70.5,28.3c0.1-0.5,0.3-0.8,0.6-1.1
		c0.3-0.3,0.7-0.5,1.1-0.6c0.5-0.1,0.9-0.1,1.3,0c0.4,0.1,0.8,0.4,1,0.8c0.3,0.4,0.5,0.8,0.6,1.4l0.1,0.2c0.1,0.5,0.1,1,0.1,1.4
		c-0.1,0.4-0.2,0.8-0.5,1.1l1.1,0.5l-0.6,0.8l-1.4-0.7c-0.1,0.1-0.3,0.1-0.4,0.1c-0.5,0.1-0.9,0.1-1.3,0c-0.4-0.1-0.8-0.4-1-0.7
		c-0.3-0.4-0.5-0.8-0.6-1.3l-0.1-0.3C-70.6,29.2-70.6,28.7-70.5,28.3z M-74.7,28.8l2.6,5l-1,0.5l-2.6-5L-74.7,28.8z M-80.3,32.3
		l1.4,1.8l1.8-1.4l-1.4-1.8l0.9-0.7l3.5,4.4l-0.9,0.7l-1.5-1.9l-1.8,1.4l1.5,1.9l-0.9,0.7l-3.5-4.4L-80.3,32.3z M-88.8,53.4
		c-0.4,0.4-1.2,0.1-1.1-0.5l0.2-1.4c0-0.3-0.1-0.5-0.3-0.7l-1.2-0.6c-0.5-0.3-0.4-1.1,0.2-1.2l1.4-0.2c0.3,0,0.5-0.2,0.5-0.5
		l0.2-1.4c0.1-0.6,0.9-0.7,1.2-0.2l0.6,1.2c0.1,0.2,0.4,0.4,0.7,0.3l1.4-0.2c0.6-0.1,1,0.6,0.5,1.1l-1,1c-0.2,0.2-0.2,0.5-0.1,0.7
		l0.6,1.2c0.3,0.5-0.3,1.1-0.8,0.8l-1.2-0.6c-0.2-0.1-0.5-0.1-0.7,0.1L-88.8,53.4z M-85.8,71.7l1.3-0.8l2.3-1.3l-4.4,1l-0.4-0.7
		l2.7-3.6l-2.2,1.5l-1.3,0.8l-0.6-1l4.8-3l0.8,1.3l-2.7,3.4l4.2-1l0.8,1.3l-4.8,3L-85.8,71.7z M-81.5,76.6l0.5-1.1l-1.5-1.4
		l-1.1,0.6l-0.9-0.9l5.4-2.6l0.8,0.7l-2.4,5.6L-81.5,76.6z M-75.6,79.2c-0.4,0.2-0.8,0.3-1.3,0.3c-0.5,0-0.9-0.2-1.3-0.4l-1.5-0.9
		l3.1-4.8l1.5,0.9c0.4,0.3,0.7,0.6,0.9,1c0.2,0.4,0.3,0.8,0.3,1.3c0,0.5-0.2,0.9-0.5,1.4l-0.1,0.2C-74.9,78.7-75.2,79-75.6,79.2z
		 M-69.5,78.2l-2.4-1l-0.5,1.3l2.1,0.8l-0.3,0.8l-2.1-0.8l-0.6,1.4l2.4,1l-0.3,0.9l-3.5-1.4l2.1-5.3l3.5,1.4L-69.5,78.2z
		 M-66.2,83.8l-1.1-0.2l1-5.6l1.1,0.2L-66.2,83.8z M-59.9,84.2l-1.2,0l-2.2-3.8l-0.1,3.7l-1.2,0l0.1-5.6l1.2,0l2.2,3.8l0.1-3.7
		l1.2,0L-59.9,84.2z M-52.6,82.7l-2-1.8l-0.4,0.8l0.4,1.6l-1.1,0.3l-1.5-5.4l1.1-0.3l0.7,2.5l0.3-0.8l0.9-2.2l1.4-0.4l-1.2,3
		l2.8,2.5L-52.6,82.7z M-47.4,80.1c-0.2,0.4-0.5,0.7-1,0.9c-0.4,0.2-0.8,0.3-1.3,0.3c-0.4,0-0.8-0.2-1.2-0.5s-0.7-0.7-0.9-1.1
		l-0.1-0.2c-0.3-0.5-0.4-1-0.4-1.4c0-0.5,0.1-0.9,0.3-1.3c0.2-0.4,0.5-0.7,1-0.9s0.8-0.3,1.3-0.3c0.4,0,0.8,0.2,1.2,0.5
		c0.4,0.3,0.7,0.7,0.9,1.2l0.1,0.2c0.3,0.5,0.4,1,0.4,1.4C-47,79.3-47.1,79.7-47.4,80.1z M-42.6,76.9l-2.2-0.9l-0.7,0.6l1.4,1.6
		L-45,79l-3.7-4.3l1.6-1.4c0.5-0.4,1-0.7,1.5-0.7c0.5,0,0.9,0.2,1.2,0.6c0.3,0.3,0.4,0.6,0.4,0.9c0,0.3,0,0.6-0.2,1l2.4,0.9l0,0
		L-42.6,76.9z M-40.7,75.2l-4.3-3.7l2.5-2.9l0.7,0.6l-1.7,2l1,0.9l1.5-1.7l0.7,0.6l-1.5,1.7l1.1,1l1.7-2l0.7,0.6L-40.7,75.2z
		 M-35.7,68.1l-1.2-0.2l-1,1.8l0.8,0.9l-0.6,1.1l-3.9-4.6l0.5-0.9l6,1L-35.7,68.1z M-33,50.2l-1.2,0.6c-0.2,0.1-0.4,0.4-0.3,0.7
		l0.2,1.4c0.1,0.6-0.6,1-1.1,0.5l-1-1c-0.2-0.2-0.5-0.2-0.7-0.1l-1.2,0.6c-0.5,0.3-1.1-0.3-0.8-0.8l0.6-1.2c0.1-0.2,0.1-0.5-0.1-0.7
		l-1-1c-0.4-0.4-0.1-1.2,0.5-1.1l1.4,0.2c0.3,0,0.5-0.1,0.7-0.3l0.6-1.2c0.3-0.5,1.1-0.4,1.2,0.2l0.2,1.4c0,0.3,0.2,0.5,0.5,0.5
		l1.4,0.2C-32.5,49.2-32.4,50-33,50.2z"/>
	<path class="st9" d="M-69.3,29.7c0.1,0.6,0.3,1,0.6,1.2c0.3,0.3,0.6,0.3,1,0.3c0.4-0.1,0.6-0.3,0.8-0.7c0.1-0.3,0.1-0.8,0-1.4
		l-0.1-0.3c-0.1-0.6-0.3-1-0.6-1.2c-0.3-0.3-0.6-0.3-1-0.2c-0.4,0.1-0.6,0.3-0.8,0.6c-0.1,0.3-0.1,0.8,0,1.4L-69.3,29.7z"/>
	<path class="st9" d="M-75.7,75.2l-0.5-0.3l-2,3.2l0.5,0.3c0.4,0.2,0.8,0.3,1.1,0.2c0.4-0.1,0.7-0.4,1-0.9l0.2-0.3
		c0.3-0.5,0.4-0.9,0.4-1.3C-75.1,75.7-75.3,75.4-75.7,75.2z"/>
	<polygon class="st9" points="-37.8,67.7 -40,67.2 -38.6,68.9 	"/>
</g>
<g>
	<path class="st7" d="M-103.7,135.2c-1.7-1.7-4.8-1.2-6.1,0.8c-1.2,2-4.4,2.5-6.1,0.8c-1.4-1.3-1.5-3.1-1.3-4.3
		c-0.5,1.1-0.8,2.2-0.8,3.5c0,4.5,3.7,8.2,8.2,8.2c3.3,0,6.1-1.9,7.4-4.7C-102.3,138.2-102.4,136.5-103.7,135.2"/>
	<path class="st8" d="M-109.8,127.8c-3.3,0-6.1,1.9-7.4,4.7c0,0.3-0.1,0.6-0.1,0.9c0,1.1,0.3,2.4,1.4,3.4c0.7,0.7,1.6,1,2.6,1
		c0,0,0,0,0,0c0,0,0,0,0,0c1.3,0,2.6-0.6,3.3-1.7c0,0,0-0.1,0.1-0.1c0,0,0-0.1,0.1-0.1c0.7-1.2,2.1-1.8,3.5-1.8h0h0
		c0.9,0,1.8,0.3,2.5,0.9c0,0,0,0,0,0c0,0,0,0,0,0c0,0,0,0,0,0c0,0,0,0,0,0c0,0,0,0,0,0c0,0,0,0,0,0c1.1,1,1.4,2.3,1.4,3.4
		c0,0.3,0,0.6-0.1,0.9c0.5-1.1,0.8-2.2,0.8-3.5C-101.7,131.5-105.3,127.8-109.8,127.8"/>
</g>
<path class="st1" d="M-27.7,76.8c4.1-6.3,6.5-13.8,6.5-21.8c0-5.9-1.3-11.5-3.5-16.6 M-98.2,38.6c-2.2,5.1-3.5,10.5-3.5,16.4
	c0,8,2.4,15.5,6.5,21.8 M-78,91.7c5.1,2.2,10.7,3.7,16.6,3.7c5.9,0,11.5-1.3,16.6-3.7 M-39.7,21.3c-6.2-4.1-13.6-6.5-21.8-6.5
	c-8.2,0-15.5,2.4-21.8,6.5"/>
<g>
	<g>
		<path class="st10" d="M-153.3,23c-17.6,0-31.9,14.3-31.9,31.9c0,17.6,14.3,31.9,31.9,31.9s31.9-14.3,31.9-31.9
			C-121.5,37.2-135.7,23-153.3,23z M-153.3,77.4c-12.4,0-22.5-10.1-22.5-22.5c0-12.4,10.1-22.5,22.5-22.5s22.5,10.1,22.5,22.5
			C-130.8,67.3-140.9,77.4-153.3,77.4z"/>
		<g>
			<g>
				<path class="st5" d="M-158.3,57c2.2,0,3.2-1.1,4.2-2.1c0.2-0.2,0.3-0.3,0.5-0.5c0.1-0.1,0.2-0.3,0.4-0.4c1-1,2.3-2.4,4.9-2.4
					c1.8,0,3.2,1,4.3,2.3c-0.5-4.7-4.4-8.4-9.3-8.4c-4.9,0-8.9,3.8-9.3,8.6C-161.6,55.6-160.2,57-158.3,57z"/>
				<path class="st6" d="M-148.4,52.7c-2.2,0-3.3,1.2-4.2,2.1c-0.1,0.1-0.3,0.3-0.4,0.4c-0.1,0.1-0.3,0.3-0.4,0.4
					c-0.9,1-2.2,2.4-4.9,2.4c-1.8,0-3.2-1-4.3-2.3c0.5,4.7,4.4,8.4,9.3,8.4c4.9,0,8.9-3.8,9.3-8.6
					C-145.1,54.1-146.5,52.7-148.4,52.7z"/>
			</g>
			<path class="st9" d="M-140,63.7l1,1l2-2l-1-1L-140,63.7z M-138.5,61.3l-1-1l-2,2l1,1L-138.5,61.3z M-139.5,49.4l1-1l-2-2l-1,1
				L-139.5,49.4z M-141.9,61.8l2-2l-1-1l-2,2L-141.9,61.8z M-141,64.7l-2,2l1,1l2-2L-141,64.7z M-142.4,63.2l-2,2l1,1l2-2
				L-142.4,63.2z M-143.9,61.8l-2,2l1,1l2-2L-143.9,61.8z M-168.2,61.3l5,5l1-1l-5-5L-168.2,61.3z M-166.7,59.8l2,2l1-1l-2-2
				L-166.7,59.8z M-165.7,64.7l-1,1l2,2l1-1L-165.7,64.7z M-168.7,61.8l-1,1l2,2l1-1L-168.7,61.8z M-168.7,47.9l5-4.9l-1-1l-5,5
				L-168.7,47.9z M-167.2,49.4l5-5l-1-1l-5,5L-167.2,49.4z M-165.7,50.9l5-5l-1-1l-5,5L-165.7,50.9z M-161.8,64.7l1-1l-2-2l-1,1
				L-161.8,64.7z M-140,49.9l-5-5l-1,1l4.9,5L-140,49.9z M-141.4,45.5l-2-2l-1,1l2,2L-141.4,45.5z M-138,47.9l1-1l-5-5l-1,1
				L-138,47.9z"/>
			<g>
				<polygon class="st9" points="-172.1,74.5 -171.1,72.5 -173.1,73.6 				"/>
				<path class="st9" d="M-140.1,77.7c-0.3-0.5-0.6-0.9-0.9-1.1c-0.3-0.2-0.7-0.2-1,0c-0.3,0.2-0.5,0.5-0.6,0.8
					c-0.1,0.4,0.1,0.8,0.3,1.3l0.1,0.2c0.3,0.5,0.6,0.9,0.9,1.1c0.3,0.2,0.7,0.2,1,0c0.3-0.2,0.5-0.5,0.6-0.8c0-0.4-0.1-0.8-0.3-1.3
					L-140.1,77.7z"/>
				<path class="st9" d="M-137.3,73.8c-0.2,0-0.4,0.1-0.7,0.3l-0.7,0.6l1.1,1.3l0.7-0.6c0.2-0.2,0.3-0.4,0.4-0.6
					c0-0.2,0-0.4-0.2-0.6C-136.9,73.9-137.1,73.8-137.3,73.8z"/>
				<polygon class="st9" points="-148.1,27.7 -149.2,29.6 -147.8,29.9 				"/>
				<path class="st9" d="M-115.9,27.8l-6.9-6.8c-0.7-0.7-1.7-0.7-2.4,0l-7.2,7.2c-5.8-4.6-13.1-7.3-21-7.3c-7.9,0-15.2,2.7-21,7.3
					l-7.2-7.2c-0.7-0.7-1.7-0.7-2.4,0l-6.9,6.8c-0.7,0.7-0.7,1.7,0,2.4l7.9,7.9c-2.8,4.9-4.4,10.6-4.4,16.7c0,7.9,2.7,15.2,7.3,21
					l-1.4,1.4l0,0l-0.8,5.4l-3.1,3.1l0.8,0.8l-2.5,2.5l0,0c-1,1-1.1,2.5-0.3,3.3c0.8,0.8,2.3,0.7,3.3-0.3l0,0l2.5-2.5l0.8,0.8
					l3.1-3.1l5.4-0.8l0,0l2.1-2.1c4.9,2.8,10.6,4.4,16.7,4.4c6.1,0,11.8-1.6,16.7-4.4l2.1,2.1l0,0l5.4,0.8l3.1,3.1l0.8-0.8l2.5,2.5
					l0,0c1,1,2.5,1.1,3.3,0.3c0.8-0.8,0.7-2.3-0.3-3.3l0,0l-2.5-2.5l0.8-0.8l-3.1-3.1l-0.8-5.4l0,0l-1.4-1.4
					c4.6-5.8,7.3-13.1,7.3-21c0-6.1-1.6-11.8-4.4-16.7l7.9-7.9C-115.2,29.6-115.2,28.5-115.9,27.8z M-131.8,35.2l-1.2,2.5l2.7-0.8
					l0.8,1l-3.9,1l-1.5,1.3l-0.8-0.9l1.5-1.3l1.5-3.8L-131.8,35.2z M-132.8,54.8c0,11.4-9.2,20.6-20.6,20.6
					c-11.4,0-20.6-9.2-20.6-20.6c0-11.4,9.2-20.6,20.6-20.6C-142,34.3-132.8,43.5-132.8,54.8z M-137.1,30.6l3.6,2.8l-0.6,0.7
					l-1.4-1.1l-2.9,3.7l-0.9-0.7l2.9-3.7l-1.3-1.1L-137.1,30.6z M-139.2,29.4l1,0.6l-2.8,4.9l-1-0.6L-139.2,29.4z M-143.8,27.3
					l1.1,0.4l-1.7,4.4l2.3,0.9l-0.3,0.9l-3.4-1.3L-143.8,27.3z M-148.4,26.2l1.1,0.2l1.1,5.9l-1.2-0.2l-0.2-1.2l-2-0.4l-0.6,1.1
					l-1.2-0.2L-148.4,26.2z M-155,25.8l0.1,3.7c0,0.4,0.1,0.6,0.3,0.8c0.2,0.2,0.4,0.2,0.7,0.2c0.7,0,1-0.4,1-1.1l-0.1-3.8l1.2,0
					l0.1,3.7c0,0.6-0.2,1.1-0.5,1.5c-0.4,0.4-0.9,0.6-1.6,0.6c-0.7,0-1.2-0.1-1.6-0.5c-0.4-0.3-0.6-0.8-0.6-1.4l-0.1-3.8L-155,25.8z
					 M-162.1,28.3c0.1-0.5,0.3-0.8,0.6-1.1c0.3-0.3,0.7-0.5,1.1-0.6c0.5-0.1,0.9-0.1,1.3,0c0.4,0.1,0.8,0.4,1,0.8
					c0.3,0.4,0.5,0.8,0.6,1.4l0.1,0.2c0.1,0.5,0.1,1,0.1,1.4c-0.1,0.4-0.2,0.8-0.5,1.1l1.1,0.5l-0.6,0.8l-1.4-0.7
					c-0.1,0.1-0.3,0.1-0.4,0.1c-0.5,0.1-0.9,0.1-1.3,0c-0.4-0.1-0.8-0.4-1-0.7c-0.3-0.4-0.5-0.8-0.6-1.3l-0.1-0.3
					C-162.1,29.2-162.2,28.7-162.1,28.3z M-166.2,28.8l2.6,5l-1,0.5l-2.6-5L-166.2,28.8z M-171.8,32.3l1.4,1.8l1.8-1.4l-1.4-1.8
					l0.9-0.7l3.5,4.4l-0.9,0.7l-1.5-1.9l-1.8,1.4l1.5,1.9l-0.9,0.7l-3.5-4.4L-171.8,32.3z M-180.3,53.4c-0.4,0.4-1.2,0.1-1.1-0.5
					l0.2-1.4c0-0.3-0.1-0.5-0.3-0.7l-1.2-0.6c-0.5-0.3-0.4-1.1,0.2-1.2l1.4-0.2c0.3,0,0.5-0.2,0.5-0.5l0.2-1.4
					c0.1-0.6,0.9-0.7,1.2-0.2l0.6,1.2c0.1,0.2,0.4,0.4,0.7,0.3l1.4-0.2c0.6-0.1,1,0.6,0.5,1.1l-1,1c-0.2,0.2-0.2,0.5-0.1,0.7
					l0.6,1.2c0.3,0.5-0.3,1.1-0.8,0.8l-1.2-0.6c-0.2-0.1-0.5-0.1-0.7,0.1L-180.3,53.4z M-177.3,71.7l1.3-0.8l2.3-1.3l-4.4,1
					l-0.4-0.7l2.7-3.6l-2.2,1.5l-1.3,0.8l-0.6-1l4.8-3l0.8,1.3l-2.7,3.4l4.2-1l0.8,1.3l-4.8,3L-177.3,71.7z M-173,76.6l0.5-1.1
					L-174,74l-1.1,0.6l-0.9-0.9l5.4-2.6l0.8,0.7l-2.4,5.6L-173,76.6z M-167.2,79.2c-0.4,0.2-0.8,0.3-1.3,0.3c-0.5,0-0.9-0.2-1.3-0.4
					l-1.5-0.9l3.1-4.8l1.5,0.9c0.4,0.3,0.7,0.6,0.9,1c0.2,0.4,0.3,0.8,0.3,1.3c0,0.5-0.2,0.9-0.5,1.4l-0.1,0.2
					C-166.4,78.7-166.8,79-167.2,79.2z M-161,78.2l-2.4-1l-0.5,1.3l2.1,0.8l-0.3,0.8l-2.1-0.8l-0.6,1.4l2.4,1l-0.3,0.9l-3.5-1.4
					l2.1-5.3l3.5,1.4L-161,78.2z M-157.7,83.8l-1.1-0.2l1-5.6l1.1,0.2L-157.7,83.8z M-151.4,84.2l-1.2,0l-2.2-3.8l-0.1,3.7l-1.2,0
					l0.1-5.6l1.2,0l2.2,3.8l0.1-3.7l1.2,0L-151.4,84.2z M-144.1,82.7l-2-1.8l-0.4,0.8l0.4,1.6l-1.1,0.3l-1.5-5.4l1.1-0.3l0.7,2.5
					l0.3-0.8l0.9-2.2l1.4-0.4l-1.2,3l2.8,2.5L-144.1,82.7z M-138.9,80.1c-0.2,0.4-0.5,0.7-1,0.9c-0.4,0.2-0.8,0.3-1.3,0.3
					c-0.4,0-0.8-0.2-1.2-0.5s-0.7-0.7-0.9-1.1l-0.1-0.2c-0.3-0.5-0.4-1-0.4-1.4c0-0.5,0.1-0.9,0.3-1.3c0.2-0.4,0.5-0.7,1-0.9
					s0.8-0.3,1.3-0.3c0.4,0,0.8,0.2,1.2,0.5c0.4,0.3,0.7,0.7,0.9,1.2l0.1,0.2c0.3,0.5,0.4,1,0.4,1.4
					C-138.6,79.3-138.7,79.7-138.9,80.1z M-134.1,76.9l-2.2-0.9l-0.7,0.6l1.4,1.6l-0.9,0.8l-3.7-4.3l1.6-1.4c0.5-0.4,1-0.7,1.5-0.7
					c0.5,0,0.9,0.2,1.2,0.6c0.3,0.3,0.4,0.6,0.4,0.9c0,0.3,0,0.6-0.2,1l2.4,0.9l0,0L-134.1,76.9z M-132.2,75.2l-4.3-3.7l2.5-2.9
					l0.7,0.6l-1.7,2l1,0.9l1.5-1.7l0.7,0.6l-1.5,1.7l1.1,1l1.7-2l0.7,0.6L-132.2,75.2z M-127.2,68.1l-1.2-0.2l-1,1.8l0.8,0.9
					l-0.6,1.1l-3.9-4.6l0.5-0.9l6,1L-127.2,68.1z M-124.5,50.2l-1.2,0.6c-0.2,0.1-0.4,0.4-0.3,0.7l0.2,1.4c0.1,0.6-0.6,1-1.1,0.5
					l-1-1c-0.2-0.2-0.5-0.2-0.7-0.1l-1.2,0.6c-0.5,0.3-1.1-0.3-0.8-0.8l0.6-1.2c0.1-0.2,0.1-0.5-0.1-0.7l-1-1
					c-0.4-0.4-0.1-1.2,0.5-1.1l1.4,0.2c0.3,0,0.5-0.1,0.7-0.3l0.6-1.2c0.3-0.5,1.1-0.4,1.2,0.2l0.2,1.4c0,0.3,0.2,0.5,0.5,0.5
					l1.4,0.2C-124.1,49.2-123.9,50-124.5,50.2z"/>
				<path class="st9" d="M-160.8,29.7c0.1,0.6,0.3,1,0.6,1.2c0.3,0.3,0.6,0.3,1,0.3c0.4-0.1,0.6-0.3,0.8-0.7c0.1-0.3,0.1-0.8,0-1.4
					l-0.1-0.3c-0.1-0.6-0.3-1-0.6-1.2c-0.3-0.3-0.6-0.3-1-0.2c-0.4,0.1-0.6,0.3-0.8,0.6c-0.1,0.3-0.1,0.8,0,1.4L-160.8,29.7z"/>
				<path class="st9" d="M-167.2,75.2l-0.5-0.3l-2,3.2l0.5,0.3c0.4,0.2,0.8,0.3,1.1,0.2c0.4-0.1,0.7-0.4,1-0.9l0.2-0.3
					c0.3-0.5,0.4-0.9,0.4-1.3C-166.6,75.7-166.8,75.4-167.2,75.2z"/>
				<polygon class="st9" points="-129.4,67.7 -131.5,67.2 -130.1,68.9 				"/>
			</g>
		</g>
	</g>
	<g>
		<path class="st9" d="M-153.3,96.1c-5.7,0-11.4-1.3-17-3.7c-0.5-0.2-0.7-0.8-0.5-1.3c0.2-0.5,0.8-0.7,1.3-0.5
			c5.3,2.4,10.8,3.6,16.2,3.6c5.7,0,11.2-1.2,16.2-3.6c0.5-0.2,1.1,0,1.3,0.5s0,1.1-0.5,1.3C-141.5,94.9-147.2,96.1-153.3,96.1z
			 M-119.5,77.6c-0.2,0-0.4-0.1-0.5-0.2c-0.5-0.3-0.6-0.9-0.3-1.4c4.1-6.4,6.3-13.8,6.3-21.2c0-5.6-1.2-11.1-3.4-16.2
			c-0.2-0.5,0-1.1,0.5-1.3c0.5-0.2,1.1,0,1.3,0.5c2.4,5.4,3.6,11.1,3.6,17c0,7.9-2.3,15.6-6.6,22.3
			C-118.9,77.4-119.2,77.6-119.5,77.6z M-187.1,77.6c-0.3,0-0.7-0.2-0.8-0.5c-4.3-6.7-6.6-14.4-6.6-22.3c0-5.8,1.2-11.5,3.6-16.9
			c0.2-0.5,0.8-0.7,1.3-0.5c0.5,0.2,0.7,0.8,0.5,1.3c-2.3,5.1-3.4,10.5-3.4,16c0,7.5,2.2,14.8,6.3,21.2c0.3,0.5,0.2,1.1-0.3,1.4
			C-186.8,77.5-187,77.6-187.1,77.6z M-175.2,22c-0.3,0-0.7-0.2-0.8-0.5c-0.3-0.5-0.2-1.1,0.3-1.4c6.8-4.4,14.3-6.6,22.3-6.6
			c8,0,15.8,2.3,22.3,6.6c0.5,0.3,0.6,0.9,0.3,1.4c-0.3,0.5-0.9,0.6-1.4,0.3c-6.3-4.1-13.6-6.3-21.2-6.3c-7.6,0-14.8,2.1-21.2,6.3
			C-174.8,22-175,22-175.2,22z"/>
	</g>
</g>
</svg>
