<svg width="154" height="27" viewBox="0 0 154 27" fill="none" xmlns="http://www.w3.org/2000/svg">
<path fill-rule="evenodd" clip-rule="evenodd" d="M151.2 5.1C152.4 5.1 153.4 4.1 153.4 2.9C153.4 1.6 152.4 0.6 151.2 0.7C150 0.7 149 1.7 149 2.9C149 4.1 150 5.1 151.2 5.1ZM151.1 0C152.7 0 154 1.3 154 2.9C154 4.4 152.7 5.7 151.1 5.8C149.5 5.8 148.2 4.5 148.2 2.9C148.2 1.3 149.5 0 151.1 0ZM150.8 1.80002H151.3C151.5 1.80002 151.6 1.80002 151.7 1.90002C151.8 2.00002 151.8 2.10002 151.8 2.20002C151.8 2.30002 151.8 2.50002 151.7 2.50002C151.6 2.60002 151.5 2.60002 151.3 2.60002H150.8V1.80002ZM151.8 4.40002H152.5L151.9 3.10002C152.1 3.00002 152.2 2.90002 152.3 2.80002C152.4 2.70002 152.4 2.50002 152.4 2.30002C152.4 2.00002 152.3 1.80002 152.1 1.60002C151.9 1.40002 151.6 1.40002 151.3 1.40002H150.2V4.50002H150.8V3.20002H151.3L151.8 4.40002ZM20.5 15.8C20.5 15.8 20.5 16.2 20.9 16.2C21.4 16.2 23.3 16.2 24.8 16.4C24.7 19.5 24.4 24.5 23.4 25.5C22.4 26.5 17.4 26.7 14.4 26.8C14.1 25.1 14.1 23.2 14.1 22.8C14.1 22.4 13.7 22.4 13.7 22.4H13.3V20.6C13.3 20.1 12.8 18.8 12.4 18.8C11.9 18.8 11.5 20.2 11.5 20.6V22.4H11.1C11.1 22.4 10.7 22.4 10.7 22.8C10.7 23.2 10.7 25.1 10.4 26.8C7.4 26.7 2.4 26.5 1.4 25.5C0.3 24.5 0.1 19.4 0 16.4C1.7 16.1 3.6 16.1 4 16.1C4.4 16.1 4.4 15.7 4.4 15.7V15.3H6.1C6.6 15.3 7.9 14.8 7.9 14.4C7.9 14 6.6 13.5 6.3 13.5H4.5V13.1C4.5 13.1 4.5 12.7 4.1 12.7C3.7 12.7 1.8 12.7 0.1 12.4C0.2 9.3 0.5 4.3 1.5 3.3C2.5 2.3 7.5 2.1 10.5 2C10.8 3.7 10.8 5.6 10.8 6C10.8 6.4 11.2 6.4 11.2 6.4H11.6V8.3C11.6 8.8 12.1 10.1 12.5 10.1C13 10.1 13.4 8.7 13.4 8.3V6.5H13.8C13.8 6.5 14.2 6.5 14.2 6.1C14.2 5.7 14.2 3.8 14.5 2.1C17.5 2.2 22.5 2.4 23.5 3.4C24.6 4.4 24.8 9.5 24.9 12.5C23.2 12.8 21.3 12.8 20.9 12.8C20.5 12.8 20.5 13.2 20.5 13.2V13.6H18.7C18.2 13.6 16.9 14.1 16.9 14.5C16.9 15 18.3 15.4 18.7 15.4H20.5V15.8ZM109 20.7C109.8 20.7 110.7 20.7 111.1 20.2C111.532 19.7682 111.516 17.3974 111.504 15.5349C111.502 15.2407 111.5 14.9592 111.5 14.7C111.5 12.8 111.5 9.69999 111.1 9.19999C110.7 8.69999 109.9 8.69999 109 8.69999C108.2 8.69999 107.3 8.69999 106.9 9.19999C106.5 9.69999 106.5 12.8 106.5 14.7C106.5 16.6 106.5 19.7 106.9 20.2C107.3 20.7 108.1 20.7 109 20.7ZM98.8 5.19999C100.1 3.79999 108.1 3.79999 109 3.79999C109.9 3.79999 117.9 3.79999 119.2 5.19999C120.5 6.59999 120.5 13.4 120.5 14.8C120.5 16.2 120.5 23 119.2 24.4C117.9 25.8 109.9 25.8 109 25.8C108.2 25.8 100.1 25.8 98.8 24.4C97.5 23 97.5 16.2 97.5 14.8C97.5 13.4 97.5 6.59999 98.8 5.19999ZM70.6 8.30001C68 8.30001 64.6 8.30001 62.9 8.80001C62.5 8.90001 62.5 12.4 62.5 12.5H70.6V17.1H62.5C62.5 17.1 62.6 20.4 62.9 20.7C63.4 21.2 68 21.2 70.6 21.2L71 25.3C67.2 25.7 54.9 25.7 54 24.8C53.1 23.8 53.1 5.60001 54 4.70001C54.8 3.70001 67.2 3.70001 71 4.20001L70.6 8.30001ZM45.8 20.7C45.4 20.2 45.4 20.2 45.4 4.29999H36C35.1 15.7 35.6 23.9 36.4 24.8C37.3 25.7 48.7 25.9 51.7 25.3L51.3 21.2L50.7664 21.1771C48.574 21.0836 46.0772 20.9772 45.8 20.7ZM87.2 4.20001H96.6L91.6 14.7L96.7 25.2H87.3L83.9 17.9H83V25.2H73.6C73.1 18.3 73.1 11 73.6 4.20001H83V11.5H83.8L87.2 4.20001ZM147 4.20001H138.9V15.1L132.9 4.20001H125.6H123.1C122.6 11 122.6 18.3 123.1 25.2H131.2V14.4L137.2 25.2H138.9H147C147.4 18.4 147.4 11.1 147 4.20001Z" fill="black"/>
</svg>
