<svg width="154" height="100" viewBox="0 0 154 100" fill="none" xmlns="http://www.w3.org/2000/svg">
<rect x="1.5" y="1.5" width="151" height="97" rx="10.5" fill="white"/>
<rect x="1.5" y="1.5" width="151" height="97" rx="10.5" stroke="black" stroke-width="3"/>
<path fill-rule="evenodd" clip-rule="evenodd" d="M42.0887 17.7092C42.0887 18.2897 41.5082 18.8702 40.9277 18.8702C40.3472 18.8702 39.7667 18.2897 39.7667 17.7092V9.87243C39.7667 9.29193 40.3472 8.71143 40.9277 8.71143C41.5082 8.71143 42.0887 9.29193 42.0887 9.87243V17.7092ZM38.6057 83.5965H43.2497C44.701 83.5965 45.5718 84.7575 45.5718 85.9185C45.5718 87.3697 44.4108 88.2405 43.2497 88.2405H38.6057C37.4447 88.2405 36.2837 87.0795 36.2837 85.9185C36.2837 84.4672 37.4447 83.5965 38.6057 83.5965ZM17.9978 40.6392C17.9978 40.0587 17.4173 39.4781 16.8368 39.4781H10.161C9.5805 39.4781 9 40.0587 9 40.6392C9 41.2197 9.5805 41.8002 10.161 41.8002H17.1271C17.7076 41.8002 17.9978 41.2197 17.9978 40.6392ZM65.0187 39.4781H71.9847C72.5652 39.4781 72.8555 40.0587 73.1457 40.6392C73.1457 41.2197 72.5652 41.8002 71.9847 41.8002H65.0187C64.4381 41.8002 63.8576 41.2197 63.8576 40.6392C63.8576 40.0587 64.4381 39.4781 65.0187 39.4781ZM59.7941 57.764C59.2136 57.4738 58.6331 57.764 58.3429 58.0543C58.0526 58.6348 58.3429 59.2153 58.6331 59.5055L65.8894 63.8593C66.4699 64.1496 67.0504 63.8593 67.3407 63.5691C67.6309 62.9886 67.3407 62.4081 67.0504 62.1178L59.7941 57.764ZM14.805 61.8276L22.0613 57.764C22.6418 57.4738 23.2224 57.4738 23.5126 58.0543C23.8029 58.6348 23.8029 59.2153 22.9321 59.5055L15.6758 63.8593C15.3855 64.1496 14.5148 63.8593 14.5148 63.2788C14.2245 62.6983 14.2245 62.1178 14.805 61.8276ZM57.7623 23.8045L67.0504 13.6457C67.3407 13.0652 67.3407 12.4847 67.0504 12.1945C66.4699 11.9042 65.8894 11.9042 65.5992 12.1945L56.6013 22.3533C56.3111 22.9338 56.3111 23.5143 56.6013 23.8045C56.8916 24.385 57.4721 24.385 57.7623 23.8045ZM25.5444 23.8045C25.2541 24.385 24.3834 24.385 24.0931 23.8045L15.0953 13.6457C14.805 13.3555 14.805 12.4847 15.0953 12.1945C15.6758 11.6139 16.2563 11.6139 16.8368 12.1945L25.5444 22.3533C26.1249 22.6435 26.1249 23.5143 25.5444 23.8045ZM60.9551 40.3489C60.9551 35.4146 58.6331 30.7706 55.1501 27.5778C51.6671 24.385 46.7328 22.3533 41.218 22.3533C35.7032 22.3533 30.7689 24.385 26.9956 27.8681C23.5126 31.0608 21.1906 35.7049 21.1906 40.9294C21.1906 41.8002 21.1906 42.9612 21.4808 43.8319C22.0613 47.6052 23.5126 50.5077 24.9639 53.12C25.4366 53.8764 25.9094 54.6021 26.3621 55.2969L26.3622 55.297L26.3623 55.2971C27.2992 56.7351 28.1501 58.0412 28.7371 59.2153C29.3176 60.3763 29.6079 61.5373 29.6079 62.6983C29.6079 63.2788 29.8982 63.8593 30.1884 64.4398C30.4787 64.7301 31.0592 65.0203 31.6397 65.0203H49.6353C50.2158 65.0203 50.7963 64.7301 51.0866 64.4398C51.3768 64.1496 51.6671 63.5691 51.6671 62.6983C51.6671 61.5373 51.9573 60.3763 52.5378 59.2153C53.1183 58.0543 53.6988 56.8933 54.8598 55.442C55.0221 55.1716 55.1894 54.8961 55.3603 54.6147C57.0239 51.8754 59.0315 48.5697 60.0844 43.8319C60.6649 42.6709 60.9551 41.5099 60.9551 40.3489ZM56.0208 43.2514C55.0956 47.3225 53.3445 50.2139 51.6701 52.9784L51.6701 52.9785C50.7182 54.5501 49.7912 56.0808 49.0548 57.764C48.9097 58.1994 48.7645 58.7073 48.6194 59.2152C48.4743 59.7232 48.3292 60.2312 48.184 60.6665H33.9617C33.6714 59.5055 33.3812 58.3445 32.8007 57.4738L30.1884 53.12C29.8982 52.6362 29.5998 52.1605 29.3015 51.6849C27.8099 49.3064 26.3184 46.9279 25.8346 43.5417C25.8346 43.1063 25.7621 42.7435 25.6895 42.3807C25.6169 42.0178 25.5444 41.655 25.5444 41.2197C25.5444 37.1561 26.9956 33.6731 29.8982 31.0608C32.5104 28.1583 36.2837 26.7071 40.9277 26.7071C45.5718 26.7071 49.345 28.1583 51.9573 30.7706C54.5696 33.3829 56.3111 36.5756 56.3111 40.3489V40.3489C56.3111 41.2197 56.3111 42.0904 56.0208 43.2514ZM33.0909 72.2766H48.7645C50.2158 72.2766 51.0866 73.1474 51.0866 74.5986C51.0866 76.0499 49.9255 76.9207 48.7645 76.9207H33.0909C31.9299 76.9207 30.7689 75.7597 30.7689 74.5986C30.7689 73.1474 31.9299 72.2766 33.0909 72.2766ZM48.7645 78.0817H33.0909C31.9299 78.0817 30.7689 78.9524 30.7689 80.4037C30.7689 81.5647 31.9299 82.7257 33.0909 82.7257H48.7645C49.9255 82.7257 51.0866 81.8549 51.0866 80.4037C51.0866 78.9524 50.2158 78.0817 48.7645 78.0817ZM33.0909 66.4716H48.7645C50.2158 66.4716 51.0866 67.6326 51.0866 68.7936C51.0866 70.2449 49.9255 71.1156 48.7645 71.1156H33.0909C31.9299 71.1156 30.7689 69.9546 30.7689 68.7936C30.7689 67.3423 31.9299 66.4716 33.0909 66.4716Z" fill="black"/>
<path d="M92.0352 46V40.8828H90.5312L88.4316 46H85.3359L87.8555 39.8477C86.6836 39.0339 86.0977 37.8099 86.0977 36.1758C86.0977 34.7695 86.4915 33.6855 87.2793 32.9238C88.0736 32.1621 89.1966 31.7812 90.6484 31.7812H94.916V46H92.0352ZM88.9785 36.4004C88.9785 37.1882 89.1185 37.7611 89.3984 38.1191C89.6784 38.4707 90.1146 38.6465 90.707 38.6465H92.0352V34.1738H90.6094C89.5221 34.1738 88.9785 34.916 88.9785 36.4004ZM105.258 41.0488C105.258 42.709 104.971 43.9818 104.398 44.8672C103.832 45.7526 102.986 46.1953 101.859 46.1953C101 46.1953 100.31 45.847 99.7891 45.1504V50.0625H97.0254V35.4336H99.584L99.6816 36.4004C100.209 35.6257 100.928 35.2383 101.84 35.2383C102.966 35.2383 103.812 35.6484 104.379 36.4688C104.952 37.2891 105.245 38.5456 105.258 40.2383V41.0488ZM102.504 40.3555C102.504 39.3333 102.39 38.6107 102.162 38.1875C101.941 37.7643 101.563 37.5527 101.029 37.5527C100.463 37.5527 100.049 37.7904 99.7891 38.2656V43.2168C100.036 43.6725 100.456 43.9004 101.049 43.9004C101.596 43.9004 101.973 43.6693 102.182 43.207C102.396 42.7448 102.504 42.0254 102.504 41.0488V40.3555ZM110.6 42.123H109.877V46H107.123V35.4336H109.877V39.3984H110.561L112.162 35.4336H115.629L112.846 40.3066L115.844 46H112.182L110.6 42.123ZM122.23 35.4336H124.984V46H122.23V39.5059L119.77 46H116.996V35.4336H119.77V41.918L122.23 35.4336ZM132.23 35.4336H134.984V46H132.23V39.5059L129.77 46H126.996V35.4336H129.77V41.918L132.23 35.4336ZM134.447 31.1367C134.447 32.0026 134.135 32.7025 133.51 33.2363C132.891 33.7702 132.074 34.0371 131.059 34.0371C130.036 34.0371 129.213 33.7702 128.588 33.2363C127.969 32.7025 127.66 32.0026 127.66 31.1367H129.682C129.682 31.5404 129.802 31.8561 130.043 32.084C130.29 32.3053 130.629 32.416 131.059 32.416C131.482 32.416 131.814 32.3053 132.055 32.084C132.296 31.8561 132.416 31.5404 132.416 31.1367H134.447ZM99.125 57.4336H100.863V66.5254H104.682V57.4336H106.4V66.5254H107.514L107.338 71.1348H105.805V68H99.125V57.4336ZM109.613 68V57.4336H113.158C114.369 57.4336 115.294 57.681 115.932 58.1758C116.57 58.6706 116.889 59.39 116.889 60.334C116.889 60.8223 116.762 61.2617 116.508 61.6523C116.254 62.043 115.883 62.3424 115.395 62.5508C115.935 62.694 116.368 62.9837 116.693 63.4199C117.025 63.8561 117.191 64.3835 117.191 65.002C117.191 65.9785 116.885 66.724 116.273 67.2383C115.668 67.7461 114.809 68 113.695 68H109.613ZM111.332 63.3613V66.5449H113.715C114.88 66.5449 115.463 66.0111 115.463 64.9434C115.463 63.8887 114.874 63.3613 113.695 63.3613H111.332ZM111.332 61.916H113.139C114.486 61.916 115.16 61.4212 115.16 60.4316C115.16 59.4355 114.525 58.9245 113.256 58.8984H111.332V61.916ZM123.314 68.1953C121.999 68.1953 120.99 67.8047 120.287 67.0234C119.584 66.2357 119.226 65.0833 119.213 63.5664V62.2871C119.213 60.7116 119.555 59.4779 120.238 58.5859C120.928 57.6875 121.889 57.2383 123.119 57.2383C124.356 57.2383 125.281 57.6322 125.893 58.4199C126.505 59.2077 126.817 60.4349 126.83 62.1016V63.2344H120.932V63.4785C120.932 64.6113 121.143 65.4349 121.566 65.9492C121.996 66.4635 122.611 66.7207 123.412 66.7207C123.92 66.7207 124.366 66.6263 124.75 66.4375C125.141 66.2422 125.505 65.9362 125.844 65.5195L126.742 66.6133C125.993 67.668 124.851 68.1953 123.314 68.1953ZM123.119 58.7227C122.403 58.7227 121.872 58.9701 121.527 59.4648C121.182 59.9531 120.987 60.7148 120.941 61.75H125.102V61.5156C125.056 60.513 124.874 59.7969 124.555 59.3672C124.242 58.9375 123.764 58.7227 123.119 58.7227ZM135.473 58.8984H132.592V68H130.873V58.8984H128.031V57.4336H135.473V58.8984Z" fill="black"/>
</svg>
