<svg width="154" height="100" viewBox="0 0 154 100" fill="none" xmlns="http://www.w3.org/2000/svg">
<rect x="1.5" y="1.5" width="151" height="97" rx="10.5" fill="white"/>
<rect x="1.5" y="1.5" width="151" height="97" rx="10.5" stroke="black" stroke-width="3"/>
<path d="M93.541 56.6289H94.752V58.9238H93.541V62H90.7773V58.9238H86.0703L85.9434 57.1367L90.7676 47.7812H93.541V56.6289ZM88.6289 56.6289H90.7773V51.873L90.7188 51.9805L88.6289 56.6289ZM97.2715 65.584L95.7969 64.8125L96.168 64.1191C96.5846 63.3509 96.7995 62.5762 96.8125 61.7949V59.5977H99.2148L99.2051 61.5605C99.1986 62.2507 99.0228 62.9668 98.6777 63.709C98.3327 64.4512 97.8639 65.0762 97.2715 65.584ZM109.557 56.1211C109.557 58.0872 109.199 59.5911 108.482 60.6328C107.773 61.6745 106.757 62.1953 105.436 62.1953C104.127 62.1953 103.115 61.6908 102.398 60.6816C101.689 59.666 101.321 58.2142 101.295 56.3262V53.6406C101.295 51.681 101.65 50.1836 102.359 49.1484C103.069 48.1068 104.088 47.5859 105.416 47.5859C106.744 47.5859 107.763 48.1003 108.473 49.1289C109.182 50.1576 109.544 51.6257 109.557 53.5332V56.1211ZM106.783 53.2402C106.783 52.1204 106.673 51.2806 106.451 50.7207C106.23 50.1608 105.885 49.8809 105.416 49.8809C104.537 49.8809 104.081 50.9062 104.049 52.957V56.502C104.049 57.6478 104.16 58.5007 104.381 59.0605C104.609 59.6204 104.96 59.9004 105.436 59.9004C105.885 59.9004 106.217 59.64 106.432 59.1191C106.653 58.5918 106.77 57.7878 106.783 56.707V53.2402ZM120.982 58.9766L122.767 52.4902H125.887V62H123.399V56.9111L121.817 62H120.156L118.636 57.0781V62H116.157V52.4902H119.225L120.982 58.9766ZM132.936 58.9766L134.72 52.4902H137.84V62H135.353V56.9111L133.771 62H132.109L130.589 57.0781V62H128.11V52.4902H131.178L132.936 58.9766ZM101.497 72.4902V82H99.9414V73.835H97.4365L97.2871 77.0605C97.2051 78.8477 96.9648 80.1162 96.5664 80.8662C96.168 81.6104 95.5293 81.9883 94.6504 82H94.1318V80.5674L94.5273 80.5322C94.9609 80.4736 95.2656 80.1836 95.4414 79.6621C95.623 79.1348 95.7432 78.1006 95.8018 76.5596L95.9512 72.4902H101.497ZM109.108 72.4902H110.655V82H109.108V75.0654L105.663 82H104.107V72.4902H105.663V79.4336L109.108 72.4902ZM119.822 82H118.275V77.9395H114.848V82H113.283V72.4902H114.848V76.6123H118.275V72.4902H119.822V82ZM127.442 72.4902H128.989V82H127.442V75.0654L123.997 82H122.441V72.4902H123.997V79.4336L127.442 72.4902ZM137.69 72.4902V82H136.135V78.2998H134.298L132.382 82H130.712L132.769 78.0273C132.253 77.8047 131.86 77.4619 131.591 76.999C131.321 76.5361 131.187 76 131.187 75.3906C131.187 74.5176 131.468 73.8174 132.03 73.29C132.593 72.7568 133.349 72.4902 134.298 72.4902H137.69ZM132.742 75.4082C132.742 75.877 132.868 76.2549 133.12 76.542C133.372 76.8232 133.712 76.9639 134.14 76.9639H136.135V73.8086H134.28C133.817 73.8086 133.445 73.958 133.164 74.2568C132.883 74.5498 132.742 74.9336 132.742 75.4082Z" fill="black"/>
<path fill-rule="evenodd" clip-rule="evenodd" d="M63.8623 13L42.0484 34.8139C40.3327 36.5296 40.3327 39.4708 42.0484 41.4316L56.9995 56.3828C57.9799 57.3632 59.2054 57.8534 60.1858 57.8534C61.4113 57.8534 62.6368 57.3632 63.3721 56.3828L107 13H101.363L60.9211 53.4416C60.7802 53.5825 60.7203 53.6424 60.6482 53.6679C60.595 53.6867 60.5351 53.6867 60.4309 53.6867C60.1858 53.6867 60.1858 53.6867 59.9407 53.4416L44.9896 38.4904C44.7445 38.2453 44.7445 37.7551 44.9896 37.51L69.4996 13H63.8623ZM56.5097 59.5691L38.8624 41.9219L31.0192 57.6083L25.1368 63.4907L34.9408 73.2947L40.8232 67.4123L56.5097 59.5691ZM17.2933 75.2555L25.1365 67.4123L31.0189 73.2947L23.1757 81.1379C19.2541 85.0595 13.3717 79.1771 17.2933 75.2555Z" fill="black"/>
<path d="M20 80.7512H80" stroke="black" stroke-width="3" stroke-miterlimit="10" stroke-linecap="round" stroke-linejoin="round"/>
</svg>
