<svg width="154" height="100" viewBox="0 0 154 100" fill="none" xmlns="http://www.w3.org/2000/svg">
<rect x="1.5" y="1.5" width="151" height="97" rx="10.5" fill="white"/>
<rect x="1.5" y="1.5" width="151" height="97" rx="10.5" stroke="black" stroke-width="3"/>
<path d="M49.9529 69.6667C49.9529 73.7778 45.3915 73.7778 45.3915 73.7778C45.3915 73.7778 40.8302 73.7778 40.8302 69.6667V60.1462H45.3915H49.9529V69.6667ZM67.9809 45H55.6002L52.9937 58.1988H45.6088H38.0066L35.4001 45H23.0194C23.0194 45 21.4989 70.9649 45.3915 82C69.5014 70.9649 67.9809 45 67.9809 45Z" fill="black"/>
<path d="M26.8066 21.2031H29.3906V34H26.8066V25.5273L23.0361 34H20.4434V21.2031H23.0361V29.6846L26.8066 21.2031ZM35.376 27.3027C35.376 26.6055 35.1123 26.2568 34.585 26.2568C34.2979 26.2568 34.0723 26.3418 33.9082 26.5117C33.7441 26.6758 33.6621 26.916 33.6621 27.2324H31.1748C31.1748 26.3711 31.4795 25.6709 32.0889 25.1318C32.6982 24.5928 33.4863 24.3232 34.4531 24.3232C35.5137 24.3232 36.3457 24.5664 36.9492 25.0527C37.5527 25.5332 37.8545 26.2129 37.8545 27.0918C37.8545 27.5137 37.7461 27.9033 37.5293 28.2607C37.3125 28.6123 37.0107 28.8936 36.624 29.1045C37.5381 29.4912 37.9951 30.2266 37.9951 31.3105C37.9951 32.1777 37.6729 32.8721 37.0283 33.3936C36.3838 33.915 35.5225 34.1758 34.4443 34.1758C33.4424 34.1758 32.625 33.9062 31.9922 33.3672C31.3652 32.8223 31.0518 32.0957 31.0518 31.1875H33.5391C33.5391 31.5215 33.6328 31.7822 33.8203 31.9697C34.0078 32.1572 34.2627 32.251 34.585 32.251C34.8896 32.251 35.1211 32.1514 35.2793 31.9521C35.4375 31.7471 35.5166 31.4688 35.5166 31.1172C35.5166 30.373 35.2266 29.9893 34.6465 29.9658H33.4072V28.3135H34.585C35.1123 28.3076 35.376 27.9707 35.376 27.3027ZM46.6523 34H44.165V30.3525H41.9766V34H39.4805V24.4902H41.9766V28.2959H44.165V24.4902H46.6523V34ZM48.1816 28.9375C48.1816 27.4961 48.5215 26.3652 49.2012 25.5449C49.8809 24.7246 50.8213 24.3145 52.0225 24.3145C53.2354 24.3145 54.1816 24.7246 54.8613 25.5449C55.541 26.3652 55.8809 27.502 55.8809 28.9551V29.5615C55.8809 31.0088 55.5439 32.1396 54.8701 32.9541C54.1963 33.7686 53.2529 34.1758 52.04 34.1758C50.8213 34.1758 49.8721 33.7686 49.1924 32.9541C48.5186 32.1338 48.1816 30.9971 48.1816 29.5439V28.9375ZM50.6777 29.5615C50.6777 31.2607 51.1318 32.1104 52.04 32.1104C52.8779 32.1104 53.3291 31.4014 53.3936 29.9834L53.4023 28.9375C53.4023 28.0703 53.2822 27.4287 53.042 27.0127C52.8018 26.5908 52.4619 26.3799 52.0225 26.3799C51.6006 26.3799 51.2695 26.5908 51.0293 27.0127C50.7949 27.4287 50.6777 28.0703 50.6777 28.9375V29.5615ZM60.873 32.1104C61.5938 32.1104 61.96 31.6416 61.9717 30.7041H64.3096C64.2979 31.7412 63.9785 32.5791 63.3516 33.2178C62.7246 33.8564 61.916 34.1758 60.9258 34.1758C59.7012 34.1758 58.7666 33.7949 58.1221 33.0332C57.4775 32.2715 57.1494 31.1494 57.1377 29.667V28.9111C57.1377 27.417 57.4541 26.2773 58.0869 25.4922C58.7256 24.707 59.666 24.3145 60.9082 24.3145C61.957 24.3145 62.7832 24.6396 63.3867 25.29C63.9902 25.9346 64.2979 26.8516 64.3096 28.041H61.9717C61.9658 27.5078 61.8779 27.0977 61.708 26.8105C61.5381 26.5234 61.2568 26.3799 60.8643 26.3799C60.4307 26.3799 60.1201 26.5352 59.9326 26.8457C59.7451 27.1504 59.6455 27.7451 59.6338 28.6299V29.5967C59.6338 30.3701 59.6719 30.9121 59.748 31.2227C59.8242 31.5273 59.9502 31.7529 60.126 31.8994C60.3018 32.04 60.5508 32.1104 60.873 32.1104ZM65.4258 28.9375C65.4258 27.4961 65.7656 26.3652 66.4453 25.5449C67.125 24.7246 68.0654 24.3145 69.2666 24.3145C70.4795 24.3145 71.4258 24.7246 72.1055 25.5449C72.7852 26.3652 73.125 27.502 73.125 28.9551V29.5615C73.125 31.0088 72.7881 32.1396 72.1143 32.9541C71.4404 33.7686 70.4971 34.1758 69.2842 34.1758C68.0654 34.1758 67.1162 33.7686 66.4365 32.9541C65.7627 32.1338 65.4258 30.9971 65.4258 29.5439V28.9375ZM67.9219 29.5615C67.9219 31.2607 68.376 32.1104 69.2842 32.1104C70.1221 32.1104 70.5732 31.4014 70.6377 29.9834L70.6465 28.9375C70.6465 28.0703 70.5264 27.4287 70.2861 27.0127C70.0459 26.5908 69.7061 26.3799 69.2666 26.3799C68.8447 26.3799 68.5137 26.5908 68.2734 27.0127C68.0391 27.4287 67.9219 28.0703 67.9219 28.9375V29.5615ZM78.1172 32.1104C78.8379 32.1104 79.2041 31.6416 79.2158 30.7041H81.5537C81.542 31.7412 81.2227 32.5791 80.5957 33.2178C79.9688 33.8564 79.1602 34.1758 78.1699 34.1758C76.9453 34.1758 76.0107 33.7949 75.3662 33.0332C74.7217 32.2715 74.3936 31.1494 74.3818 29.667V28.9111C74.3818 27.417 74.6982 26.2773 75.3311 25.4922C75.9697 24.707 76.9102 24.3145 78.1523 24.3145C79.2012 24.3145 80.0273 24.6396 80.6309 25.29C81.2344 25.9346 81.542 26.8516 81.5537 28.041H79.2158C79.21 27.5078 79.1221 27.0977 78.9521 26.8105C78.7822 26.5234 78.501 26.3799 78.1084 26.3799C77.6748 26.3799 77.3643 26.5352 77.1768 26.8457C76.9893 27.1504 76.8896 27.7451 76.8779 28.6299V29.5967C76.8779 30.3701 76.916 30.9121 76.9922 31.2227C77.0684 31.5273 77.1943 31.7529 77.3701 31.8994C77.5459 32.04 77.7949 32.1104 78.1172 32.1104ZM89.8066 26.5381H87.3633V34H84.876V26.5381H82.4502V24.4902H89.8066V26.5381ZM90.5801 28.9375C90.5801 27.4961 90.9199 26.3652 91.5996 25.5449C92.2793 24.7246 93.2197 24.3145 94.4209 24.3145C95.6338 24.3145 96.5801 24.7246 97.2598 25.5449C97.9395 26.3652 98.2793 27.502 98.2793 28.9551V29.5615C98.2793 31.0088 97.9424 32.1396 97.2686 32.9541C96.5947 33.7686 95.6514 34.1758 94.4385 34.1758C93.2197 34.1758 92.2705 33.7686 91.5908 32.9541C90.917 32.1338 90.5801 30.9971 90.5801 29.5439V28.9375ZM93.0762 29.5615C93.0762 31.2607 93.5303 32.1104 94.4385 32.1104C95.2764 32.1104 95.7275 31.4014 95.792 29.9834L95.8008 28.9375C95.8008 28.0703 95.6807 27.4287 95.4404 27.0127C95.2002 26.5908 94.8604 26.3799 94.4209 26.3799C93.999 26.3799 93.668 26.5908 93.4277 27.0127C93.1934 27.4287 93.0762 28.0703 93.0762 28.9375V29.5615ZM104.537 24.4902H107.016V34H104.537V28.1553L102.322 34H99.8262V24.4902H102.322V30.3262L104.537 24.4902ZM106.532 20.623C106.532 21.4023 106.251 22.0322 105.688 22.5127C105.132 22.9932 104.396 23.2334 103.482 23.2334C102.562 23.2334 101.821 22.9932 101.259 22.5127C100.702 22.0322 100.424 21.4023 100.424 20.623H102.243C102.243 20.9863 102.352 21.2705 102.568 21.4756C102.791 21.6748 103.096 21.7744 103.482 21.7744C103.863 21.7744 104.162 21.6748 104.379 21.4756C104.596 21.2705 104.704 20.9863 104.704 20.623H106.532ZM112.14 30.5107H111.489V34H109.011V24.4902H111.489V28.0586H112.104L113.546 24.4902H116.666L114.161 28.876L116.859 34H113.563L112.14 30.5107ZM122.607 24.4902H125.086V34H122.607V28.1553L120.393 34H117.896V24.4902H120.393V30.3262L122.607 24.4902ZM131.607 24.4902H134.086V34H131.607V28.1553L129.393 34H126.896V24.4902H129.393V30.3262L131.607 24.4902ZM133.603 20.623C133.603 21.4023 133.321 22.0322 132.759 22.5127C132.202 22.9932 131.467 23.2334 130.553 23.2334C129.633 23.2334 128.892 22.9932 128.329 22.5127C127.772 22.0322 127.494 21.4023 127.494 20.623H129.313C129.313 20.9863 129.422 21.2705 129.639 21.4756C129.861 21.6748 130.166 21.7744 130.553 21.7744C130.934 21.7744 131.232 21.6748 131.449 21.4756C131.666 21.2705 131.774 20.9863 131.774 20.623H133.603ZM103.096 54H101.549V49.9395H98.1211V54H96.5566V44.4902H98.1211V48.6123H101.549V44.4902H103.096V54ZM110.47 54C110.376 53.7949 110.309 53.4492 110.268 52.9629C109.717 53.7715 109.014 54.1758 108.158 54.1758C107.297 54.1758 106.623 53.9355 106.137 53.4551C105.656 52.9688 105.416 52.2861 105.416 51.4072C105.416 50.4404 105.744 49.6729 106.4 49.1045C107.057 48.5361 107.956 48.2461 109.099 48.2344H110.241V47.2236C110.241 46.6553 110.115 46.251 109.863 46.0107C109.611 45.7705 109.228 45.6504 108.712 45.6504C108.243 45.6504 107.862 45.791 107.569 46.0723C107.276 46.3477 107.13 46.6992 107.13 47.127H105.574C105.574 46.6406 105.718 46.1777 106.005 45.7383C106.292 45.293 106.679 44.9443 107.165 44.6924C107.651 44.4404 108.193 44.3145 108.791 44.3145C109.764 44.3145 110.502 44.5576 111.006 45.0439C111.516 45.5244 111.776 46.2275 111.788 47.1533V51.9521C111.794 52.6846 111.894 53.3203 112.087 53.8594V54H110.47ZM108.396 52.7607C108.776 52.7607 109.14 52.6553 109.485 52.4443C109.831 52.2334 110.083 51.9697 110.241 51.6533V49.3857H109.362C108.624 49.3975 108.041 49.5645 107.613 49.8867C107.186 50.2031 106.972 50.6484 106.972 51.2227C106.972 51.7617 107.08 52.1543 107.297 52.4004C107.514 52.6406 107.88 52.7607 108.396 52.7607ZM116.789 49.9482H115.91V54H114.354V44.4902H115.91V48.5156H116.684L119.276 44.4902H121.131L117.958 49.0166L121.359 54H119.408L116.789 49.9482ZM122.335 48.8057C122.335 47.4229 122.669 46.3301 123.337 45.5273C124.011 44.7188 124.898 44.3145 126 44.3145C127.102 44.3145 127.986 44.707 128.654 45.4922C129.328 46.2773 129.674 47.3467 129.691 48.7002V49.7021C129.691 51.0791 129.357 52.1689 128.689 52.9717C128.021 53.7744 127.131 54.1758 126.018 54.1758C124.916 54.1758 124.031 53.7861 123.363 53.0068C122.701 52.2275 122.358 51.1729 122.335 49.8428V48.8057ZM123.891 49.7021C123.891 50.6807 124.081 51.4512 124.462 52.0137C124.849 52.5703 125.367 52.8486 126.018 52.8486C127.389 52.8486 128.095 51.8584 128.136 49.8779V48.8057C128.136 47.833 127.942 47.0654 127.556 46.5029C127.169 45.9346 126.65 45.6504 126 45.6504C125.361 45.6504 124.849 45.9346 124.462 46.5029C124.081 47.0654 123.891 47.8301 123.891 48.7969V49.7021ZM134.578 49.2275H130.948V47.9004H134.578V49.2275ZM89.6309 74H88.084V69.9395H84.6562V74H83.0918V64.4902H84.6562V68.6123H88.084V64.4902H89.6309V74ZM95.5107 74.1758C94.3271 74.1758 93.4189 73.8242 92.7861 73.1211C92.1533 72.4121 91.8311 71.375 91.8193 70.0098V68.8584C91.8193 67.4404 92.127 66.3301 92.7422 65.5273C93.3633 64.7188 94.2275 64.3145 95.335 64.3145C96.4482 64.3145 97.2803 64.6689 97.8311 65.3779C98.3818 66.0869 98.6631 67.1914 98.6748 68.6914V69.7109H93.3662V69.9307C93.3662 70.9502 93.5566 71.6914 93.9375 72.1543C94.3242 72.6172 94.8779 72.8486 95.5986 72.8486C96.0557 72.8486 96.457 72.7637 96.8027 72.5938C97.1543 72.418 97.4824 72.1426 97.7871 71.7676L98.5957 72.752C97.9219 73.7012 96.8936 74.1758 95.5107 74.1758ZM95.335 65.6504C94.6904 65.6504 94.2129 65.873 93.9023 66.3184C93.5918 66.7578 93.416 67.4434 93.375 68.375H97.1191V68.1641C97.0781 67.2617 96.9141 66.6172 96.627 66.2305C96.3457 65.8438 95.915 65.6504 95.335 65.6504ZM106.717 74H105.152V70.5898C104.584 70.7539 104.001 70.8359 103.403 70.8359C102.431 70.8359 101.675 70.5371 101.136 69.9395C100.597 69.3359 100.318 68.4775 100.301 67.3643V64.4814H101.856V67.4082C101.892 68.8027 102.407 69.5 103.403 69.5C103.989 69.5 104.572 69.4121 105.152 69.2363V64.4902H106.717V74ZM115.857 74H114.311V69.9395H110.883V74H109.318V64.4902H110.883V68.6123H114.311V64.4902H115.857V74ZM123.478 64.4902H125.024V74H123.478V67.0654L120.032 74H118.477V64.4902H120.032V71.4336L123.478 64.4902ZM130.096 69.9482H129.217V74H127.661V64.4902H129.217V68.5156H129.99L132.583 64.4902H134.438L131.265 69.0166L134.666 74H132.715L130.096 69.9482Z" fill="black"/>
</svg>
