<svg width="154" height="100" viewBox="0 0 154 100" fill="none" xmlns="http://www.w3.org/2000/svg">
<rect x="1.5" y="1.5" width="151" height="97" rx="10.5" fill="white"/>
<rect x="1.5" y="1.5" width="151" height="97" rx="10.5" stroke="black" stroke-width="3"/>
<path d="M30.1024 82C22.4871 82 16 75.5129 16 67.8976C16 62.5387 18.8205 58.308 23.0512 55.7696V24.0512C23.0512 20.1025 26.1537 17 30.1024 17C34.051 17 37.1535 20.1025 37.1535 24.0512V55.4876C41.3842 58.026 44.2047 62.5387 44.2047 67.6156C44.2047 75.5129 37.9997 81.718 30.1024 81.718" stroke="#878787" stroke-width="3" stroke-miterlimit="10" stroke-linecap="round" stroke-linejoin="round"/>
<path fill-rule="evenodd" clip-rule="evenodd" d="M31.6019 24.2115C31.6019 23.3831 30.9303 22.7115 30.1019 22.7115C29.2735 22.7115 28.6019 23.3831 28.6019 24.2115L28.6019 59.0027C24.5106 59.7233 21.3586 63.3318 21.3586 67.6158C21.3586 72.4108 25.3075 76.3597 30.1025 76.3597C34.8976 76.3597 38.8464 72.4108 38.8464 67.6158C38.8464 63.3314 35.6938 59.7225 31.6019 59.0025L31.6019 24.2115Z" fill="black"/>
<path d="M31.6019 24.2115L30.1019 24.2115L30.1019 24.2115L31.6019 24.2115ZM28.6019 24.2115L27.1019 24.2115V24.2115L28.6019 24.2115ZM28.6019 59.0027L28.8621 60.48C29.5791 60.3537 30.1019 59.7308 30.1019 59.0027L28.6019 59.0027ZM31.6019 59.0025L30.1019 59.0025C30.1019 59.7306 30.6248 60.3536 31.3419 60.4798L31.6019 59.0025ZM30.1019 24.2115V24.2115H33.1019C33.1019 22.5547 31.7587 21.2115 30.1019 21.2115V24.2115ZM30.1019 24.2115V24.2115V21.2115C28.445 21.2115 27.1019 22.5547 27.1019 24.2115H30.1019ZM30.1019 59.0027L30.1019 24.2115L27.1019 24.2115L27.1019 59.0027L30.1019 59.0027ZM22.8586 67.6158C22.8586 64.077 25.4708 61.0773 28.8621 60.48L28.3417 57.5254C23.5504 58.3693 19.8586 62.5866 19.8586 67.6158H22.8586ZM30.1025 74.8597C26.1359 74.8597 22.8586 71.5824 22.8586 67.6158H19.8586C19.8586 73.2392 24.4791 77.8597 30.1025 77.8597V74.8597ZM37.3464 67.6158C37.3464 71.5824 34.0691 74.8597 30.1025 74.8597V77.8597C35.726 77.8597 40.3464 73.2392 40.3464 67.6158H37.3464ZM31.3419 60.4798C34.7337 61.0766 37.3464 64.0766 37.3464 67.6158H40.3464C40.3464 62.5861 36.6539 58.3684 31.8618 57.5252L31.3419 60.4798ZM30.1019 24.2115L30.1019 59.0025L33.1019 59.0025L33.1019 24.2115L30.1019 24.2115Z" fill="black"/>
<path d="M59.5699 30.416L61.3014 23.4902H62.9537L59.8424 34.3447C59.608 35.1592 59.277 35.7773 58.8492 36.1992C58.4215 36.627 57.9352 36.8408 57.3902 36.8408C57.1793 36.8408 56.9098 36.7939 56.5816 36.7002V35.3818L56.9244 35.417C57.3756 35.417 57.7271 35.3086 57.9791 35.0918C58.2369 34.8809 58.4449 34.5117 58.6031 33.9844L58.9107 32.9209L56.1158 23.4902H57.8121L59.5699 30.416ZM67.8359 31.8486C68.3515 31.8486 68.7646 31.6904 69.0751 31.374C69.3857 31.0518 69.5556 30.5947 69.5849 30.0029H71.0527C71.0175 30.917 70.6923 31.6758 70.0771 32.2793C69.4677 32.877 68.7206 33.1758 67.8359 33.1758C66.6581 33.1758 65.7587 32.8066 65.1376 32.0684C64.5224 31.3242 64.2148 30.2197 64.2148 28.7549V27.709C64.2148 26.2734 64.5224 25.1836 65.1376 24.4395C65.7529 23.6895 66.6493 23.3145 67.8271 23.3145C68.7997 23.3145 69.5702 23.6221 70.1386 24.2373C70.7128 24.8525 71.0175 25.6934 71.0527 26.7598H69.5849C69.5497 26.0566 69.3798 25.5293 69.0751 25.1777C68.7763 24.8262 68.3603 24.6504 67.8271 24.6504C67.1357 24.6504 66.623 24.8789 66.289 25.3359C65.955 25.7871 65.7822 26.5312 65.7704 27.5684V28.7812C65.7704 29.9004 65.9345 30.6914 66.2626 31.1543C66.5966 31.6172 67.121 31.8486 67.8359 31.8486ZM79.0373 24.8086H76.4446V33H74.8977V24.8086H72.3401V23.4902H79.0373V24.8086ZM80.1578 27.8057C80.1578 26.4229 80.4918 25.3301 81.1597 24.5273C81.8336 23.7188 82.7213 23.3145 83.8228 23.3145C84.9244 23.3145 85.8091 23.707 86.4771 24.4922C87.1509 25.2773 87.4966 26.3467 87.5142 27.7002V28.7021C87.5142 30.0791 87.1802 31.1689 86.5123 31.9717C85.8443 32.7744 84.9537 33.1758 83.8404 33.1758C82.7388 33.1758 81.8541 32.7861 81.1861 32.0068C80.524 31.2275 80.1812 30.1729 80.1578 28.8428V27.8057ZM81.7134 28.7021C81.7134 29.6807 81.9039 30.4512 82.2847 31.0137C82.6714 31.5703 83.19 31.8486 83.8404 31.8486C85.2115 31.8486 85.9175 30.8584 85.9586 28.8779V27.8057C85.9586 26.833 85.7652 26.0654 85.3785 25.5029C84.9918 24.9346 84.4732 24.6504 83.8228 24.6504C83.1841 24.6504 82.6714 24.9346 82.2847 25.5029C81.9039 26.0654 81.7134 26.8301 81.7134 27.7969V28.7021ZM94.8397 23.4902H96.3866V33H94.8397V26.0654L91.3944 33H89.8388V23.4902H91.3944V30.4336L94.8397 23.4902ZM95.7538 20.0273C95.7538 20.7363 95.5106 21.3076 95.0243 21.7412C94.5438 22.1689 93.911 22.3828 93.1259 22.3828C92.3407 22.3828 91.705 22.166 91.2186 21.7324C90.7323 21.2988 90.4891 20.7305 90.4891 20.0273H91.8163C91.8163 20.4375 91.9276 20.7598 92.1503 20.9941C92.3729 21.2227 92.6981 21.3369 93.1259 21.3369C93.536 21.3369 93.8554 21.2227 94.0839 20.9941C94.3182 20.7656 94.4354 20.4434 94.4354 20.0273H95.7538ZM105.224 33H103.659V29.5898C103.091 29.7539 102.508 29.8359 101.91 29.8359C100.938 29.8359 100.182 29.5371 99.6428 28.9395C99.1037 28.3359 98.8254 27.4775 98.8078 26.3643V23.4814H100.363V26.4082C100.399 27.8027 100.914 28.5 101.91 28.5C102.496 28.5 103.079 28.4121 103.659 28.2363V23.4902H105.224V33ZM113.006 23.4902H114.553V33H113.006V26.0654L109.561 33H108.005V23.4902H109.561V30.4336L113.006 23.4902ZM117.361 33V23.4902H120.552C121.641 23.4902 122.473 23.7129 123.048 24.1582C123.622 24.6035 123.909 25.251 123.909 26.1006C123.909 26.54 123.795 26.9355 123.566 27.2871C123.338 27.6387 123.004 27.9082 122.564 28.0957C123.051 28.2246 123.44 28.4854 123.733 28.8779C124.032 29.2705 124.181 29.7451 124.181 30.3018C124.181 31.1807 123.906 31.8516 123.355 32.3145C122.81 32.7715 122.037 33 121.035 33H117.361ZM118.908 28.8252V31.6904H121.053C122.101 31.6904 122.626 31.21 122.626 30.249C122.626 29.2998 122.096 28.8252 121.035 28.8252H118.908ZM118.908 27.5244H120.534C121.747 27.5244 122.353 27.0791 122.353 26.1885C122.353 25.292 121.782 24.832 120.639 24.8086H118.908V27.5244ZM133.096 28.9482H132.217V33H130.661V23.4902H132.217V27.5156H132.99L135.583 23.4902H137.438L134.265 28.0166L137.666 33H135.715L133.096 28.9482ZM53.5202 53V43.4902H56.7107C57.8005 43.4902 58.6325 43.7129 59.2068 44.1582C59.781 44.6035 60.0681 45.251 60.0681 46.1006C60.0681 46.54 59.9538 46.9355 59.7253 47.2871C59.4968 47.6387 59.1628 47.9082 58.7234 48.0957C59.2097 48.2246 59.5993 48.4854 59.8923 48.8779C60.1911 49.2705 60.3405 49.7451 60.3405 50.3018C60.3405 51.1807 60.0652 51.8516 59.5144 52.3145C58.9695 52.7715 58.196 53 57.1941 53H53.5202ZM55.0671 48.8252V51.6904H57.2116C58.2605 51.6904 58.7849 51.21 58.7849 50.249C58.7849 49.2998 58.2546 48.8252 57.1941 48.8252H55.0671ZM55.0671 47.5244H56.6931C57.906 47.5244 58.5124 47.0791 58.5124 46.1885C58.5124 45.292 57.9411 44.832 56.7986 44.8086H55.0671V47.5244ZM64.0474 46.7686H66.0074C66.9156 46.7744 67.6392 47.0527 68.1783 47.6035C68.7173 48.1543 68.9869 48.9043 68.9869 49.8535C68.9869 50.8027 68.7144 51.5645 68.1695 52.1387C67.6246 52.707 66.9039 52.9941 66.0074 53H62.5005V43.4902H64.0474V46.7686ZM71.8873 53H70.3316V43.4902H71.8873V53ZM64.0474 48.0957V51.6729H65.981C66.438 51.6729 66.7925 51.5176 67.0445 51.207C67.3023 50.8965 67.4312 50.4658 67.4312 49.915C67.4312 49.376 67.3052 48.9395 67.0533 48.6055C66.8013 48.2715 66.4556 48.1016 66.0162 48.0957H64.0474ZM77.809 51.8486C78.3246 51.8486 78.7377 51.6904 79.0482 51.374C79.3588 51.0518 79.5287 50.5947 79.558 50.0029H81.0258C80.9906 50.917 80.6654 51.6758 80.0502 52.2793C79.4408 52.877 78.6937 53.1758 77.809 53.1758C76.6312 53.1758 75.7318 52.8066 75.1107 52.0684C74.4955 51.3242 74.1879 50.2197 74.1879 48.7549V47.709C74.1879 46.2734 74.4955 45.1836 75.1107 44.4395C75.726 43.6895 76.6225 43.3145 77.8002 43.3145C78.7729 43.3145 79.5434 43.6221 80.1117 44.2373C80.6859 44.8525 80.9906 45.6934 81.0258 46.7598H79.558C79.5229 46.0566 79.3529 45.5293 79.0482 45.1777C78.7494 44.8262 78.3334 44.6504 77.8002 44.6504C77.1088 44.6504 76.5961 44.8789 76.2621 45.3359C75.9281 45.7871 75.7553 46.5312 75.7436 47.5684V48.7812C75.7436 49.9004 75.9076 50.6914 76.2357 51.1543C76.5697 51.6172 77.0941 51.8486 77.809 51.8486ZM82.4036 47.8057C82.4036 46.4229 82.7375 45.3301 83.4055 44.5273C84.0793 43.7188 84.967 43.3145 86.0686 43.3145C87.1702 43.3145 88.0549 43.707 88.7229 44.4922C89.3967 45.2773 89.7424 46.3467 89.76 47.7002V48.7021C89.76 50.0791 89.426 51.1689 88.758 51.9717C88.0901 52.7744 87.1995 53.1758 86.0862 53.1758C84.9846 53.1758 84.0998 52.7861 83.4319 52.0068C82.7698 51.2275 82.427 50.1729 82.4036 48.8428V47.8057ZM83.9592 48.7021C83.9592 49.6807 84.1496 50.4512 84.5305 51.0137C84.9172 51.5703 85.4358 51.8486 86.0862 51.8486C87.4573 51.8486 88.1633 50.8584 88.2043 48.8779V47.8057C88.2043 46.833 88.011 46.0654 87.6243 45.5029C87.2375 44.9346 86.719 44.6504 86.0686 44.6504C85.4299 44.6504 84.9172 44.9346 84.5305 45.5029C84.1496 46.0654 83.9592 46.8301 83.9592 47.7969V48.7021ZM94.2579 48.9482H93.379V53H91.8233V43.4902H93.379V47.5156H94.1524L96.7452 43.4902H98.5997L95.4268 48.0166L98.8282 53H96.877L94.2579 48.9482ZM105.374 43.4902H106.921V53H105.374V46.0654L101.929 53H100.373V43.4902H101.929V50.4336L105.374 43.4902ZM113.985 50.8467L116.534 43.4902H118.468V53H116.921V46.4434L114.521 53H113.458L111.006 46.2852V53H109.459V43.4902H111.463L113.985 50.8467ZM127.992 41.1523V43.4902H129.267V45.3623H127.992V50.082C127.992 50.457 128.042 50.7148 128.142 50.8555C128.247 50.9961 128.447 51.0664 128.739 51.0664C128.98 51.0664 129.176 51.0459 129.328 51.0049L129.311 52.9385C128.889 53.0967 128.432 53.1758 127.94 53.1758C126.334 53.1758 125.523 52.2559 125.505 50.416V45.3623H124.406V43.4902H125.505V41.1523H127.992ZM132.99 43.9625C132.99 43.0977 133.194 42.4191 133.602 41.927C134.01 41.4348 134.574 41.1887 135.295 41.1887C136.022 41.1887 136.59 41.4348 136.998 41.927C137.406 42.4191 137.61 43.1012 137.61 43.973V44.3369C137.61 45.2053 137.408 45.8838 137.003 46.3725C136.599 46.8611 136.033 47.1055 135.305 47.1055C134.574 47.1055 134.004 46.8611 133.597 46.3725C133.192 45.8803 132.99 45.1982 132.99 44.3264V43.9625ZM134.488 44.3369C134.488 45.3564 134.76 45.8662 135.305 45.8662C135.808 45.8662 136.079 45.4408 136.117 44.59L136.123 43.9625C136.123 43.4422 136.051 43.0572 135.906 42.8076C135.762 42.5545 135.558 42.4279 135.295 42.4279C135.042 42.4279 134.843 42.5545 134.699 42.8076C134.558 43.0572 134.488 43.4422 134.488 43.9625V44.3369ZM59.6552 67.8057C59.6552 66.2705 59.8632 64.8262 60.2792 63.4727C60.6953 62.1191 61.2841 60.9326 62.0458 59.9131C62.5087 59.2979 62.954 58.8467 63.3818 58.5596L63.6894 59.6318C62.9863 60.3057 62.4091 61.3223 61.9579 62.6816C61.5068 64.0352 61.2607 65.541 61.2197 67.1992L61.2109 67.9111C61.2109 69.9736 61.5009 71.7959 62.081 73.3779C62.5204 74.5674 63.0566 75.4873 63.6894 76.1377L63.3818 77.1309C62.8427 76.7676 62.2949 76.1699 61.7382 75.3379C60.3495 73.2461 59.6552 70.7354 59.6552 67.8057ZM65.2342 71.6729L65.7 71.0049C66.2039 70.2314 66.4939 69.0918 66.5701 67.5859L66.7019 63.4902H72.0105V71.6729H73.1179V75.7949H71.5623V73H66.157V75.7949H64.5926L64.6013 71.6729H65.2342ZM66.9656 71.6729H70.4636V64.9932H68.2136L68.1345 67.3135C68.0525 69.165 67.6629 70.6182 66.9656 71.6729ZM74.4869 67.8057C74.4869 66.4229 74.8209 65.3301 75.4889 64.5273C76.1627 63.7188 77.0504 63.3145 78.152 63.3145C79.2535 63.3145 80.1383 63.707 80.8063 64.4922C81.4801 65.2773 81.8258 66.3467 81.8434 67.7002V68.7021C81.8434 70.0791 81.5094 71.1689 80.8414 71.9717C80.1735 72.7744 79.2828 73.1758 78.1695 73.1758C77.068 73.1758 76.1832 72.7861 75.5153 72.0068C74.8531 71.2275 74.5104 70.1729 74.4869 68.8428V67.8057ZM76.0426 68.7021C76.0426 69.6807 76.233 70.4512 76.6139 71.0137C77.0006 71.5703 77.5192 71.8486 78.1695 71.8486C79.5406 71.8486 80.2467 70.8584 80.2877 68.8779V67.8057C80.2877 66.833 80.0944 66.0654 79.7076 65.5029C79.3209 64.9346 78.8024 64.6504 78.152 64.6504C77.5133 64.6504 77.0006 64.9346 76.6139 65.5029C76.233 66.0654 76.0426 66.8301 76.0426 67.7969V68.7021ZM94.8206 73H87.6663V71.8311L91.3138 66.9971C91.8645 66.2529 92.2454 65.6436 92.4563 65.1689C92.6731 64.6885 92.7815 64.1816 92.7815 63.6484C92.7815 62.9688 92.6233 62.418 92.3069 61.9961C91.9905 61.5742 91.5745 61.3633 91.0589 61.3633C90.4085 61.3633 89.9046 61.5889 89.5472 62.04C89.1956 62.4854 89.0198 63.1299 89.0198 63.9736H87.4642C87.4642 62.7959 87.7864 61.8438 88.431 61.1172C89.0755 60.3906 89.9515 60.0273 91.0589 60.0273C92.0784 60.0273 92.8811 60.3408 93.4671 60.9678C94.053 61.5889 94.346 62.418 94.346 63.4551C94.346 64.7207 93.6868 66.2178 92.3685 67.9463L89.5208 71.6729H94.8206V73ZM103.309 67.542C103.309 69.4287 103.033 70.8408 102.483 71.7783C101.932 72.71 101.068 73.1758 99.8898 73.1758C98.7472 73.1758 97.8947 72.7275 97.3322 71.8311C96.7697 70.9346 96.4767 69.5869 96.4533 67.7881V65.5908C96.4533 63.7217 96.7286 62.3271 97.2794 61.4072C97.8361 60.4873 98.7003 60.0273 99.8722 60.0273C101.027 60.0273 101.879 60.4639 102.43 61.3369C102.986 62.21 103.279 63.5312 103.309 65.3008V67.542ZM101.753 65.3184C101.753 63.9648 101.604 62.9688 101.305 62.3301C101.006 61.6855 100.528 61.3633 99.8722 61.3633C99.2335 61.3633 98.7648 61.6797 98.466 62.3125C98.1671 62.9395 98.0119 63.8887 98.0001 65.1602V67.7969C98.0001 69.1445 98.1554 70.1582 98.466 70.8379C98.7765 71.5117 99.2511 71.8486 99.8898 71.8486C100.523 71.8486 100.988 71.5293 101.287 70.8906C101.586 70.252 101.741 69.2764 101.753 67.9639V65.3184ZM112.113 67.542C112.113 69.4287 111.838 70.8408 111.287 71.7783C110.736 72.71 109.872 73.1758 108.694 73.1758C107.552 73.1758 106.699 72.7275 106.137 71.8311C105.574 70.9346 105.281 69.5869 105.258 67.7881V65.5908C105.258 63.7217 105.533 62.3271 106.084 61.4072C106.641 60.4873 107.505 60.0273 108.677 60.0273C109.831 60.0273 110.684 60.4639 111.234 61.3369C111.791 62.21 112.084 63.5312 112.113 65.3008V67.542ZM110.558 65.3184C110.558 63.9648 110.408 62.9688 110.109 62.3301C109.811 61.6855 109.333 61.3633 108.677 61.3633C108.038 61.3633 107.569 61.6797 107.27 62.3125C106.972 62.9395 106.816 63.8887 106.805 65.1602V67.7969C106.805 69.1445 106.96 70.1582 107.27 70.8379C107.581 71.5117 108.056 71.8486 108.694 71.8486C109.327 71.8486 109.793 71.5293 110.092 70.8906C110.391 70.252 110.546 69.2764 110.558 67.9639V65.3184ZM117.771 63.7252C117.771 64.8572 117.606 65.7045 117.276 66.267C116.945 66.826 116.427 67.1055 115.72 67.1055C115.034 67.1055 114.523 66.8365 114.185 66.2986C113.848 65.7607 113.672 64.9521 113.658 63.8729V62.5545C113.658 61.433 113.823 60.5963 114.154 60.0443C114.488 59.4924 115.006 59.2164 115.709 59.2164C116.402 59.2164 116.913 59.4783 117.244 60.0021C117.578 60.526 117.754 61.3187 117.771 62.3805V63.7252ZM116.838 62.391C116.838 61.5789 116.748 60.9812 116.569 60.598C116.39 60.2113 116.103 60.018 115.709 60.018C115.326 60.018 115.045 60.2078 114.866 60.5875C114.686 60.9637 114.593 61.5332 114.586 62.2961V63.8781C114.586 64.6867 114.679 65.2949 114.866 65.7027C115.052 66.107 115.337 66.3092 115.72 66.3092C116.1 66.3092 116.379 66.1176 116.558 65.7344C116.738 65.3512 116.831 64.7658 116.838 63.9783V62.391ZM131.779 68.9395C131.709 70.3105 131.322 71.3594 130.619 72.0859C129.922 72.8125 128.935 73.1758 127.657 73.1758C126.374 73.1758 125.355 72.6895 124.599 71.7168C123.843 70.7383 123.465 69.4141 123.465 67.7441V65.4238C123.465 63.7598 123.852 62.4443 124.625 61.4775C125.404 60.5107 126.465 60.0273 127.807 60.0273C129.043 60.0273 129.998 60.3994 130.672 61.1436C131.352 61.8818 131.721 62.9395 131.779 64.3164H130.153C130.083 63.2734 129.863 62.5293 129.494 62.084C129.125 61.6387 128.563 61.416 127.807 61.416C126.934 61.416 126.263 61.7588 125.794 62.4443C125.325 63.124 125.091 64.123 125.091 65.4414V67.7881C125.091 69.083 125.308 70.0762 125.741 70.7676C126.181 71.459 126.819 71.8047 127.657 71.8047C128.495 71.8047 129.099 71.5967 129.468 71.1807C129.837 70.7646 130.066 70.0176 130.153 68.9395H131.779ZM136.778 67.8936C136.778 70.5068 136.192 72.8184 135.021 74.8281C134.388 75.9062 133.731 76.6738 133.052 77.1309L132.744 76.1377C133.482 75.4287 134.077 74.3477 134.528 72.8945C134.979 71.4355 135.211 69.8389 135.223 68.1045V67.7881C135.223 65.5615 134.856 63.5693 134.124 61.8115C133.72 60.8506 133.26 60.0977 132.744 59.5527L133.052 58.5596C133.696 58.9932 134.32 59.7051 134.924 60.6953C136.16 62.7344 136.778 65.1338 136.778 67.8936Z" fill="black"/>
</svg>
