<svg width="154" height="100" viewBox="0 0 154 100" fill="none" xmlns="http://www.w3.org/2000/svg">
<rect x="1.5" y="1.5" width="151" height="97" rx="10.5" fill="white"/>
<rect x="1.5" y="1.5" width="151" height="97" rx="10.5" stroke="black" stroke-width="3"/>
<path fill-rule="evenodd" clip-rule="evenodd" d="M41.8233 17C41.8233 16.1716 41.1518 15.5 40.3233 15.5C39.4949 15.5 38.8233 16.1716 38.8233 17V24.8837C38.8233 25.7121 39.4949 26.3837 40.3233 26.3837C41.1518 26.3837 41.8233 25.7121 41.8233 24.8837V17ZM23.4665 23.3452C22.8808 22.7594 21.931 22.7594 21.3452 23.3452C20.7594 23.931 20.7594 24.8808 21.3452 25.4665L26.8399 30.9612C27.4257 31.547 28.3754 31.547 28.9612 30.9612C29.547 30.3754 29.547 29.4257 28.9612 28.8399L23.4665 23.3452ZM59.3014 25.4665C59.8872 24.8808 59.8872 23.931 59.3014 23.3452C58.7157 22.7594 57.7659 22.7594 57.1801 23.3452L51.6854 28.8399C51.0997 29.4257 51.0997 30.3754 51.6854 30.9612C52.2712 31.547 53.221 31.547 53.8068 30.9612L59.3014 25.4665ZM15 40.8233C14.1716 40.8233 13.5 41.4949 13.5 42.3233C13.5 43.1518 14.1716 43.8233 15 43.8233H22.8837C23.7121 43.8233 24.3837 43.1518 24.3837 42.3233C24.3837 41.4949 23.7121 40.8233 22.8837 40.8233H15ZM28.9612 55.8068C29.547 55.221 29.547 54.2712 28.9612 53.6854C28.3754 53.0997 27.4257 53.0997 26.8399 53.6854L21.3452 59.1801C20.7594 59.7659 20.7594 60.7157 21.3452 61.3014C21.931 61.8872 22.8808 61.8872 23.4665 61.3014L28.9612 55.8068ZM52.9851 37.5453C51.0739 32.5285 46.057 28.945 40.3234 28.945C32.9175 28.945 26.7062 34.9175 26.7062 42.5622C26.7062 48.2958 30.2897 53.3127 35.3065 55.2239L52.9851 37.5453ZM54.1795 74.8135C54.6573 75.2913 54.6573 75.7691 54.1795 76.2469C53.9406 76.4858 53.7017 76.4858 53.4628 76.4858C53.2239 76.4858 52.985 76.4858 52.7461 76.2469C50.8349 74.8135 49.8793 72.9024 49.8793 70.9912C49.6404 67.4077 52.5072 64.5409 52.7461 64.302C53.2239 63.8242 53.7017 63.8242 54.1795 64.302C54.6573 64.7798 54.6573 65.2576 54.1795 65.7354C54.1795 65.7354 51.7905 68.1244 52.0294 70.7523C52.0294 72.4246 52.7461 73.6191 54.1795 74.8135ZM65.1689 65.9743C63.8141 63.6711 61.9214 60.2923 60.2317 57.2757L60.2311 57.2746C58.9415 54.9723 57.7701 52.8811 57.0463 51.6403C56.8074 51.1625 56.0907 51.1625 55.6129 51.6403C53.9406 54.5071 49.6404 61.913 47.4903 65.9743C44.6235 70.9912 47.2514 80.5471 56.3296 80.5471C65.6467 80.5471 68.2746 70.9912 65.1689 65.9743Z" fill="black"/>
<path d="M28.0632 71.7177L65.8389 33.9421" stroke="#646363" stroke-width="3" stroke-miterlimit="10" stroke-linecap="round"/>
<path d="M83.7392 32.416L85.4707 25.4902H87.123L84.0117 36.3447C83.7773 37.1592 83.4463 37.7773 83.0185 38.1992C82.5908 38.627 82.1045 38.8408 81.5595 38.8408C81.3486 38.8408 81.0791 38.7939 80.7509 38.7002V37.3818L81.0937 37.417C81.5449 37.417 81.8964 37.3086 82.1484 37.0918C82.4062 36.8809 82.6142 36.5117 82.7724 35.9844L83.08 34.9209L80.2851 25.4902H81.9814L83.7392 32.416ZM91.7352 33.8486C92.2508 33.8486 92.6639 33.6904 92.9744 33.374C93.285 33.0518 93.4549 32.5947 93.4842 32.0029H94.952C94.9168 32.917 94.5916 33.6758 93.9764 34.2793C93.367 34.877 92.6199 35.1758 91.7352 35.1758C90.5574 35.1758 89.658 34.8066 89.0369 34.0684C88.4217 33.3242 88.1141 32.2197 88.1141 30.7549V29.709C88.1141 28.2734 88.4217 27.1836 89.0369 26.4395C89.6521 25.6895 90.5486 25.3145 91.7264 25.3145C92.699 25.3145 93.4695 25.6221 94.0379 26.2373C94.6121 26.8525 94.9168 27.6934 94.952 28.7598H93.4842C93.449 28.0566 93.2791 27.5293 92.9744 27.1777C92.6756 26.8262 92.2596 26.6504 91.7264 26.6504C91.035 26.6504 90.5223 26.8789 90.1883 27.3359C89.8543 27.7871 89.6814 28.5312 89.6697 29.5684V30.7812C89.6697 31.9004 89.8338 32.6914 90.1619 33.1543C90.4959 33.6172 91.0203 33.8486 91.7352 33.8486ZM102.667 26.8086H100.074V35H98.527V26.8086H95.9694V25.4902H102.667V26.8086ZM103.517 29.8057C103.517 28.4229 103.851 27.3301 104.519 26.5273C105.193 25.7188 106.081 25.3145 107.182 25.3145C108.284 25.3145 109.168 25.707 109.836 26.4922C110.51 27.2773 110.856 28.3467 110.874 29.7002V30.7021C110.874 32.0791 110.54 33.1689 109.872 33.9717C109.204 34.7744 108.313 35.1758 107.2 35.1758C106.098 35.1758 105.213 34.7861 104.545 34.0068C103.883 33.2275 103.541 32.1729 103.517 30.8428V29.8057ZM105.073 30.7021C105.073 31.6807 105.263 32.4512 105.644 33.0137C106.031 33.5703 106.549 33.8486 107.2 33.8486C108.571 33.8486 109.277 32.8584 109.318 30.8779V29.8057C109.318 28.833 109.124 28.0654 108.738 27.5029C108.351 26.9346 107.833 26.6504 107.182 26.6504C106.543 26.6504 106.031 26.9346 105.644 27.5029C105.263 28.0654 105.073 28.8301 105.073 29.7969V30.7021ZM117.929 25.4902H119.476V35H117.929V28.0654L114.484 35H112.928V25.4902H114.484V32.4336L117.929 25.4902ZM118.843 22.0273C118.843 22.7363 118.6 23.3076 118.114 23.7412C117.633 24.1689 117 24.3828 116.215 24.3828C115.43 24.3828 114.794 24.166 114.308 23.7324C113.822 23.2988 113.578 22.7305 113.578 22.0273H114.906C114.906 22.4375 115.017 22.7598 115.24 22.9941C115.462 23.2227 115.787 23.3369 116.215 23.3369C116.625 23.3369 116.945 23.2227 117.173 22.9941C117.408 22.7656 117.525 22.4434 117.525 22.0273H118.843ZM128.043 35H126.479V31.5898C125.91 31.7539 125.327 31.8359 124.73 31.8359C123.757 31.8359 123.001 31.5371 122.462 30.9395C121.923 30.3359 121.645 29.4775 121.627 28.3643V25.4814H123.183V28.4082C123.218 29.8027 123.734 30.5 124.73 30.5C125.316 30.5 125.899 30.4121 126.479 30.2363V25.4902H128.043V35ZM130.52 34.1475C130.52 33.8662 130.602 33.6318 130.766 33.4443C130.936 33.2568 131.188 33.1631 131.521 33.1631C131.855 33.1631 132.107 33.2568 132.277 33.4443C132.453 33.6318 132.541 33.8662 132.541 34.1475C132.541 34.417 132.453 34.6426 132.277 34.8242C132.107 35.0059 131.855 35.0967 131.521 35.0967C131.188 35.0967 130.936 35.0059 130.766 34.8242C130.602 34.6426 130.52 34.417 130.52 34.1475ZM84.5302 50.9482H83.6513V55H82.0957V45.4902H83.6513V49.5156H84.4248L87.0175 45.4902H88.872L85.6992 50.0166L89.1005 55H87.1494L84.5302 50.9482ZM97.8502 53.8486C98.3659 53.8486 98.7789 53.6904 99.0895 53.374C99.4 53.0518 99.57 52.5947 99.5993 52.0029H101.067C101.032 52.917 100.707 53.6758 100.091 54.2793C99.4821 54.877 98.735 55.1758 97.8502 55.1758C96.6725 55.1758 95.7731 54.8066 95.152 54.0684C94.5368 53.3242 94.2291 52.2197 94.2291 50.7549V49.709C94.2291 48.2734 94.5368 47.1836 95.152 46.4395C95.7672 45.6895 96.6637 45.3145 97.8414 45.3145C98.8141 45.3145 99.5846 45.6221 100.153 46.2373C100.727 46.8525 101.032 47.6934 101.067 48.7598H99.5993C99.5641 48.0566 99.3942 47.5293 99.0895 47.1777C98.7907 46.8262 98.3746 46.6504 97.8414 46.6504C97.15 46.6504 96.6373 46.8789 96.3034 47.3359C95.9694 47.7871 95.7965 48.5312 95.7848 49.5684V50.7812C95.7848 51.9004 95.9489 52.6914 96.277 53.1543C96.611 53.6172 97.1354 53.8486 97.8502 53.8486ZM102.911 55V45.4902H106.101C107.191 45.4902 108.023 45.7129 108.597 46.1582C109.171 46.6035 109.458 47.251 109.458 48.1006C109.458 48.54 109.344 48.9355 109.116 49.2871C108.887 49.6387 108.553 49.9082 108.114 50.0957C108.6 50.2246 108.99 50.4854 109.283 50.8779C109.582 51.2705 109.731 51.7451 109.731 52.3018C109.731 53.1807 109.456 53.8516 108.905 54.3145C108.36 54.7715 107.586 55 106.584 55H102.911ZM104.458 50.8252V53.6904H106.602C107.651 53.6904 108.175 53.21 108.175 52.249C108.175 51.2998 107.645 50.8252 106.584 50.8252H104.458ZM104.458 49.5244H106.083C107.296 49.5244 107.903 49.0791 107.903 48.1885C107.903 47.292 107.332 46.832 106.189 46.8086H104.458V49.5244ZM115.152 55.1758C113.968 55.1758 113.06 54.8242 112.427 54.1211C111.794 53.4121 111.472 52.375 111.46 51.0098V49.8584C111.46 48.4404 111.768 47.3301 112.383 46.5273C113.004 45.7188 113.868 45.3145 114.976 45.3145C116.089 45.3145 116.921 45.6689 117.472 46.3779C118.023 47.0869 118.304 48.1914 118.316 49.6914V50.7109H113.007V50.9307C113.007 51.9502 113.198 52.6914 113.578 53.1543C113.965 53.6172 114.519 53.8486 115.24 53.8486C115.697 53.8486 116.098 53.7637 116.444 53.5938C116.795 53.418 117.123 53.1426 117.428 52.7676L118.237 53.752C117.563 54.7012 116.534 55.1758 115.152 55.1758ZM114.976 46.6504C114.331 46.6504 113.854 46.873 113.543 47.3184C113.233 47.7578 113.057 48.4434 113.016 49.375H116.76V49.1641C116.719 48.2617 116.555 47.6172 116.268 47.2305C115.987 46.8438 115.556 46.6504 114.976 46.6504ZM126.004 46.8086H123.411V55H121.864V46.8086H119.307V45.4902H126.004V46.8086ZM130.256 52.416L131.987 45.4902H133.64L130.528 56.3447C130.294 57.1592 129.963 57.7773 129.535 58.1992C129.107 58.627 128.621 58.8408 128.076 58.8408C127.865 58.8408 127.596 58.7939 127.268 58.7002V57.3818L127.61 57.417C128.062 57.417 128.413 57.3086 128.665 57.0918C128.923 56.8809 129.131 56.5117 129.289 55.9844L129.597 54.9209L126.802 45.4902H128.498L130.256 52.416ZM85.7168 65.4902H87.2636V75H85.7168V68.0654L82.2714 75H80.7158V65.4902H82.2714V72.4336L85.7168 65.4902ZM93.8424 75V65.4902H97.0329C98.1227 65.4902 98.9547 65.7129 99.5289 66.1582C100.103 66.6035 100.39 67.251 100.39 68.1006C100.39 68.54 100.276 68.9355 100.048 69.2871C99.819 69.6387 99.485 69.9082 99.0455 70.0957C99.5319 70.2246 99.9215 70.4854 100.214 70.8779C100.513 71.2705 100.663 71.7451 100.663 72.3018C100.663 73.1807 100.387 73.8516 99.8366 74.3145C99.2916 74.7715 98.5182 75 97.5163 75H93.8424ZM95.3893 70.8252V73.6904H97.5338C98.5827 73.6904 99.1071 73.21 99.1071 72.249C99.1071 71.2998 98.5768 70.8252 97.5163 70.8252H95.3893ZM95.3893 69.5244H97.0153C98.2282 69.5244 98.8346 69.0791 98.8346 68.1885C98.8346 67.292 98.2633 66.832 97.1207 66.8086H95.3893V69.5244ZM109.388 65.4902V75H107.833V66.835H105.328L105.178 70.0605C105.096 71.8477 104.856 73.1162 104.458 73.8662C104.059 74.6104 103.42 74.9883 102.541 75H102.023V73.5674L102.418 73.5322C102.852 73.4736 103.157 73.1836 103.333 72.6621C103.514 72.1348 103.634 71.1006 103.693 69.5596L103.842 65.4902H109.388ZM116.663 75C116.57 74.7949 116.502 74.4492 116.461 73.9629C115.91 74.7715 115.207 75.1758 114.352 75.1758C113.491 75.1758 112.817 74.9355 112.33 74.4551C111.85 73.9688 111.61 73.2861 111.61 72.4072C111.61 71.4404 111.938 70.6729 112.594 70.1045C113.25 69.5361 114.15 69.2461 115.292 69.2344H116.435V68.2236C116.435 67.6553 116.309 67.251 116.057 67.0107C115.805 66.7705 115.421 66.6504 114.906 66.6504C114.437 66.6504 114.056 66.791 113.763 67.0723C113.47 67.3477 113.324 67.6992 113.324 68.127H111.768C111.768 67.6406 111.911 67.1777 112.199 66.7383C112.486 66.293 112.872 65.9443 113.359 65.6924C113.845 65.4404 114.387 65.3145 114.985 65.3145C115.957 65.3145 116.696 65.5576 117.2 66.0439C117.709 66.5244 117.97 67.2275 117.982 68.1533V72.9521C117.988 73.6846 118.087 74.3203 118.281 74.8594V75H116.663ZM114.589 73.7607C114.97 73.7607 115.333 73.6553 115.679 73.4443C116.025 73.2334 116.277 72.9697 116.435 72.6533V70.3857H115.556C114.818 70.3975 114.235 70.5645 113.807 70.8867C113.379 71.2031 113.165 71.6484 113.165 72.2227C113.165 72.7617 113.274 73.1543 113.491 73.4004C113.707 73.6406 114.074 73.7607 114.589 73.7607ZM125.538 66.835H121.996V75H120.432V65.4902H125.538V66.835ZM130.124 75.1758C128.94 75.1758 128.032 74.8242 127.399 74.1211C126.767 73.4121 126.444 72.375 126.433 71.0098V69.8584C126.433 68.4404 126.74 67.3301 127.355 66.5273C127.977 65.7188 128.841 65.3145 129.948 65.3145C131.062 65.3145 131.894 65.6689 132.444 66.3779C132.995 67.0869 133.276 68.1914 133.288 69.6914V70.7109H127.979V70.9307C127.979 71.9502 128.17 72.6914 128.551 73.1543C128.938 73.6172 129.491 73.8486 130.212 73.8486C130.669 73.8486 131.07 73.7637 131.416 73.5938C131.768 73.418 132.096 73.1426 132.4 72.7676L133.209 73.752C132.535 74.7012 131.507 75.1758 130.124 75.1758ZM129.948 66.6504C129.304 66.6504 128.826 66.873 128.516 67.3184C128.205 67.7578 128.029 68.4434 127.988 69.375H131.732V69.1641C131.691 68.2617 131.527 67.6172 131.24 67.2305C130.959 66.8438 130.528 66.6504 129.948 66.6504Z" fill="black"/>
</svg>
