<svg width="154" height="100" viewBox="0 0 154 100" fill="none" xmlns="http://www.w3.org/2000/svg">
<rect x="1.5" y="1.5" width="151" height="97" rx="10.5" fill="white"/>
<rect x="1.5" y="1.5" width="151" height="97" rx="10.5" stroke="black" stroke-width="3"/>
<path d="M51.0353 23.8971C50.0927 23.8971 49.1502 24.8824 49.1502 25.8676V74.886C49.1502 75.3787 48.6789 80.0588 41.6097 80.0588C36.8969 80.0588 35.2474 78.3346 34.5405 76.8566C35.483 77.8419 37.1325 78.5809 40.1958 78.5809C47.5007 78.5809 47.5007 73.1618 47.5007 73.1618V27.5919H34.0692V25.8676C34.0692 24.8824 33.1266 23.8971 32.1841 23.8971C31.4772 23.8971 31.0059 23.1581 31.0059 22.4191C31.0059 21.6801 31.4772 20.9412 32.1841 20.9412H51.2709C51.9778 20.9412 52.4491 21.6801 52.4491 22.4191C52.4491 23.4044 51.7422 23.8971 51.0353 23.8971ZM36.8969 34.2426H34.0692V32.2721H36.8969V34.2426ZM34.0692 51.7316H39.9602V53.7022H34.0692V51.7316ZM34.0692 58.3823H36.8969V60.3529H34.0692V58.3823ZM34.0692 64.7868H36.8969V66.7574H34.0692V64.7868ZM34.0692 71.1912H36.8969V73.1618H34.0692V71.1912ZM36.8969 47.2978H34.0692V45.3272H36.8969V47.2978ZM34.0692 38.9228H36.8969V40.8934H34.0692V38.9228ZM51.0353 17H32.1841C29.3564 17 27 19.4632 27 22.4191C27 24.8824 28.4138 26.8529 30.0633 27.5919V75.1324C30.0633 75.1324 30.299 84 41.374 84C52.6848 84 52.9204 75.1324 52.9204 75.1324V27.5919C54.8055 26.8529 55.9837 24.8824 55.9837 22.4191C56.2194 19.4632 53.863 17 51.0353 17Z" fill="black"/>
<path d="M102.227 30.0078L102.93 22.7812H109.814V25.1445H105.195L104.941 28.1914C105.475 27.8333 106.025 27.6543 106.592 27.6543C107.764 27.6543 108.665 28.071 109.297 28.9043C109.935 29.7376 110.254 30.916 110.254 32.4395C110.254 33.8652 109.876 35.0143 109.121 35.8867C108.366 36.7591 107.357 37.1953 106.094 37.1953C105.345 37.1953 104.652 37.0195 104.014 36.668C103.376 36.3099 102.871 35.8151 102.5 35.1836C102.135 34.5521 101.95 33.8359 101.943 33.0352H104.678C104.723 33.6276 104.87 34.0866 105.117 34.4121C105.365 34.7376 105.684 34.9004 106.074 34.9004C106.53 34.9004 106.882 34.6823 107.129 34.2461C107.376 33.8034 107.5 33.1458 107.5 32.2734C107.5 31.4531 107.35 30.8346 107.051 30.418C106.758 30.0013 106.344 29.793 105.811 29.793C105.29 29.793 104.886 29.972 104.6 30.3301L104.424 30.5742L102.227 30.0078ZM112.959 40.584L111.484 39.8125L111.855 39.1191C112.272 38.3509 112.487 37.5762 112.5 36.7949V34.5977H114.902L114.893 36.5605C114.886 37.2507 114.71 37.9668 114.365 38.709C114.02 39.4512 113.551 40.0762 112.959 40.584ZM117.266 30.0078L117.969 22.7812H124.854V25.1445H120.234L119.98 28.1914C120.514 27.8333 121.064 27.6543 121.631 27.6543C122.803 27.6543 123.704 28.071 124.336 28.9043C124.974 29.7376 125.293 30.916 125.293 32.4395C125.293 33.8652 124.915 35.0143 124.16 35.8867C123.405 36.7591 122.396 37.1953 121.133 37.1953C120.384 37.1953 119.691 37.0195 119.053 36.668C118.415 36.3099 117.91 35.8151 117.539 35.1836C117.174 34.5521 116.989 33.8359 116.982 33.0352H119.717C119.762 33.6276 119.909 34.0866 120.156 34.4121C120.404 34.7376 120.723 34.9004 121.113 34.9004C121.569 34.9004 121.921 34.6823 122.168 34.2461C122.415 33.8034 122.539 33.1458 122.539 32.2734C122.539 31.4531 122.389 30.8346 122.09 30.418C121.797 30.0013 121.383 29.793 120.85 29.793C120.329 29.793 119.925 29.972 119.639 30.3301L119.463 30.5742L117.266 30.0078ZM136.789 29.5645H133.704V37H131.217V27.4902H136.789V29.5645ZM90.3213 51.8057C90.3213 50.4229 90.6553 49.3301 91.3232 48.5273C91.9971 47.7188 92.8848 47.3145 93.9863 47.3145C95.0879 47.3145 95.9727 47.707 96.6406 48.4922C97.3145 49.2773 97.6602 50.3467 97.6777 51.7002V52.7021C97.6777 54.0791 97.3438 55.1689 96.6758 55.9717C96.0078 56.7744 95.1172 57.1758 94.0039 57.1758C92.9023 57.1758 92.0176 56.7861 91.3496 56.0068C90.6875 55.2275 90.3447 54.1729 90.3213 52.8428V51.8057ZM91.877 52.7021C91.877 53.6807 92.0674 54.4512 92.4482 55.0137C92.835 55.5703 93.3535 55.8486 94.0039 55.8486C95.375 55.8486 96.0811 54.8584 96.1221 52.8779V51.8057C96.1221 50.833 95.9287 50.0654 95.542 49.5029C95.1553 48.9346 94.6367 48.6504 93.9863 48.6504C93.3477 48.6504 92.835 48.9346 92.4482 49.5029C92.0674 50.0654 91.877 50.8301 91.877 51.7969V52.7021ZM103.303 48.0352C104.305 48.0352 105.102 48.4336 105.693 49.2305C106.285 50.0215 106.581 51.082 106.581 52.4121V52.5439C106.581 53.9502 106.253 55.0752 105.597 55.9189C104.94 56.7568 104.073 57.1758 102.995 57.1758C101.917 57.1758 101.05 56.751 100.394 55.9014C99.7373 55.0518 99.4092 53.9092 99.4092 52.4736V51.6738C99.4092 49.7109 99.7168 48.1406 100.332 46.9629C100.947 45.7793 101.85 45.0498 103.039 44.7744C103.725 44.6162 104.188 44.4287 104.428 44.2119C104.674 43.9951 104.797 43.708 104.797 43.3506H106.054L106.045 43.6934C105.975 44.8535 105.418 45.5889 104.375 45.8994L103.303 46.1982C102.529 46.4092 101.935 46.7812 101.519 47.3145C101.108 47.8477 100.842 48.5449 100.719 49.4062C101.434 48.4922 102.295 48.0352 103.303 48.0352ZM102.986 49.3711C102.365 49.3711 101.873 49.6348 101.51 50.1621C101.152 50.6895 100.974 51.4834 100.974 52.5439C100.974 53.5752 101.152 54.3867 101.51 54.9785C101.867 55.5645 102.362 55.8574 102.995 55.8574C103.628 55.8574 104.126 55.5615 104.489 54.9697C104.853 54.3779 105.034 53.502 105.034 52.3418C105.034 51.4277 104.85 50.7041 104.48 50.1709C104.117 49.6377 103.619 49.3711 102.986 49.3711ZM107.627 47.4902H111.477V50.7686H113.437C114.345 50.7744 115.068 51.0527 115.607 51.6035C116.146 52.1543 116.416 52.9043 116.416 53.8535C116.416 54.8027 116.144 55.5645 115.599 56.1387C115.054 56.707 114.333 56.9941 113.437 57H109.93V48.8262H107.627V47.4902ZM111.477 52.0957V55.6729H113.41C113.873 55.6729 114.228 55.5176 114.474 55.207C114.726 54.8906 114.852 54.46 114.852 53.915C114.852 53.3877 114.729 52.957 114.482 52.623C114.242 52.2832 113.902 52.1074 113.463 52.0957H111.477ZM121.487 57.1758C120.304 57.1758 119.396 56.8242 118.763 56.1211C118.13 55.4121 117.808 54.375 117.796 53.0098V51.8584C117.796 50.4404 118.104 49.3301 118.719 48.5273C119.34 47.7188 120.204 47.3145 121.312 47.3145C122.425 47.3145 123.257 47.6689 123.808 48.3779C124.358 49.0869 124.64 50.1914 124.651 51.6914V52.7109H119.343V52.9307C119.343 53.9502 119.533 54.6914 119.914 55.1543C120.301 55.6172 120.854 55.8486 121.575 55.8486C122.032 55.8486 122.434 55.7637 122.779 55.5938C123.131 55.418 123.459 55.1426 123.764 54.7676L124.572 55.752C123.898 56.7012 122.87 57.1758 121.487 57.1758ZM121.312 48.6504C120.667 48.6504 120.189 48.873 119.879 49.3184C119.568 49.7578 119.393 50.4434 119.352 51.375H123.096V51.1641C123.055 50.2617 122.891 49.6172 122.604 49.2305C122.322 48.8438 121.892 48.6504 121.312 48.6504ZM131.19 54.8467L133.739 47.4902H135.673V57H134.126V50.4434L131.727 57H130.663L128.211 50.2852V57H126.664V47.4902H128.668L131.19 54.8467ZM88.4492 72.9482H87.5703V77H86.0146V67.4902H87.5703V71.5156H88.3438L90.9365 67.4902H92.791L89.6182 72.0166L93.0195 77H91.0684L88.4492 72.9482ZM101.387 72.7021C101.387 74.208 101.114 75.3301 100.569 76.0684C100.03 76.8066 99.2656 77.1758 98.2754 77.1758C97.3203 77.1758 96.585 76.8154 96.0693 76.0947V80.6562H94.5225V67.4902H95.9287L96.0078 68.5449C96.5293 67.7246 97.2764 67.3145 98.249 67.3145C99.292 67.3145 100.071 67.6777 100.587 68.4043C101.103 69.1309 101.369 70.2178 101.387 71.665V72.7021ZM99.8398 71.8145C99.8398 70.748 99.6758 69.9629 99.3477 69.459C99.0195 68.9492 98.4922 68.6943 97.7656 68.6943C97.0215 68.6943 96.4561 69.0664 96.0693 69.8105V74.7588C96.4502 75.4854 97.0215 75.8486 97.7832 75.8486C98.4863 75.8486 99.002 75.5967 99.3301 75.0928C99.6641 74.583 99.834 73.8066 99.8398 72.7637V71.8145ZM108.286 77C108.192 76.7949 108.125 76.4492 108.084 75.9629C107.533 76.7715 106.83 77.1758 105.975 77.1758C105.113 77.1758 104.439 76.9355 103.953 76.4551C103.473 75.9688 103.232 75.2861 103.232 74.4072C103.232 73.4404 103.561 72.6729 104.217 72.1045C104.873 71.5361 105.772 71.2461 106.915 71.2344H108.058V70.2236C108.058 69.6553 107.932 69.251 107.68 69.0107C107.428 68.7705 107.044 68.6504 106.528 68.6504C106.06 68.6504 105.679 68.791 105.386 69.0723C105.093 69.3477 104.946 69.6992 104.946 70.127H103.391C103.391 69.6406 103.534 69.1777 103.821 68.7383C104.108 68.293 104.495 67.9443 104.981 67.6924C105.468 67.4404 106.01 67.3145 106.607 67.3145C107.58 67.3145 108.318 67.5576 108.822 68.0439C109.332 68.5244 109.593 69.2275 109.604 70.1533V74.9521C109.61 75.6846 109.71 76.3203 109.903 76.8594V77H108.286ZM106.212 75.7607C106.593 75.7607 106.956 75.6553 107.302 75.4443C107.647 75.2334 107.899 74.9697 108.058 74.6533V72.3857H107.179C106.44 72.3975 105.857 72.5645 105.43 72.8867C105.002 73.2031 104.788 73.6484 104.788 74.2227C104.788 74.7617 104.896 75.1543 105.113 75.4004C105.33 75.6406 105.696 75.7607 106.212 75.7607ZM115.326 75.8486C115.842 75.8486 116.255 75.6904 116.565 75.374C116.876 75.0518 117.046 74.5947 117.075 74.0029H118.543C118.508 74.917 118.183 75.6758 117.567 76.2793C116.958 76.877 116.211 77.1758 115.326 77.1758C114.148 77.1758 113.249 76.8066 112.628 76.0684C112.013 75.3242 111.705 74.2197 111.705 72.7549V71.709C111.705 70.2734 112.013 69.1836 112.628 68.4395C113.243 67.6895 114.14 67.3145 115.317 67.3145C116.29 67.3145 117.061 67.6221 117.629 68.2373C118.203 68.8525 118.508 69.6934 118.543 70.7598H117.075C117.04 70.0566 116.87 69.5293 116.565 69.1777C116.267 68.8262 115.851 68.6504 115.317 68.6504C114.626 68.6504 114.113 68.8789 113.779 69.3359C113.445 69.7871 113.272 70.5312 113.261 71.5684V72.7812C113.261 73.9004 113.425 74.6914 113.753 75.1543C114.087 75.6172 114.611 75.8486 115.326 75.8486ZM122.92 72.9482H122.041V77H120.485V67.4902H122.041V71.5156H122.814L125.407 67.4902H127.262L124.089 72.0166L127.49 77H125.539L122.92 72.9482ZM134.126 67.4902H135.673V77H134.126V70.0654L130.681 77H129.125V67.4902H130.681V74.4336L134.126 67.4902Z" fill="black"/>
</svg>
