<svg width="154" height="100" viewBox="0 0 154 100" fill="none" xmlns="http://www.w3.org/2000/svg">
<rect x="1.5" y="1.5" width="151" height="97" rx="10.5" fill="white"/>
<rect x="1.5" y="1.5" width="151" height="97" rx="10.5" stroke="black" stroke-width="3"/>
<path fill-rule="evenodd" clip-rule="evenodd" d="M53.0475 31.8803V46.2718L59.4557 49.9937C58.5063 50.2418 57.7943 51.2344 57.7943 52.2269L51.8608 48.5049L45.3604 52.4885V51.7441C45.3604 50.9997 44.8857 50.2553 44.411 49.7591L50.4367 46.0236V31.8803L38.807 24.6845L27.1773 31.8803V46.2718L32.942 49.7591C32.23 50.2553 31.9927 50.9997 31.9927 51.7441V52.4885L25.7533 48.7531L15.1457 55.2904C14.4337 55.7867 13.7216 55.5386 13.247 54.7942C12.7723 54.0498 13.0096 53.0573 13.7216 52.561L24.3292 46.0236V31.6321L13.7216 25.0948C13.0096 24.8466 12.7723 23.8541 13.247 23.3579C13.4843 22.6135 14.4337 22.3653 15.1457 22.8616L25.7533 29.399L36.9083 22.6995V17.4888C36.9083 16.7444 37.6203 16 38.3323 16C39.0444 16 39.7564 16.7444 39.519 17.4888V21.9551L51.6234 29.399L58.7437 25.1808V26.6696C58.7437 27.1658 58.981 27.6621 59.2184 28.1583L53.0475 31.8803ZM17.9787 21.2989L24.9607 25.7379C25.1723 25.9715 25.3838 25.9715 25.5954 25.9715C26.0186 25.9715 26.4417 25.7379 26.6533 25.2706C27.0764 24.5697 26.8649 23.8688 26.2301 23.4016L19.2482 18.9626C18.6135 18.4953 17.9787 18.7289 17.5556 19.4298C17.1324 20.1307 17.344 20.8316 17.9787 21.2989ZM45.7708 35.7094L38.7888 31.2704C38.1541 30.8032 37.9425 30.1023 38.3657 29.4014C38.7888 28.7005 39.4235 28.4669 40.0583 28.9341L47.0402 33.3731C47.6749 33.8404 47.8865 34.5413 47.4633 35.2422C47.2518 35.7094 46.8286 35.9431 46.4055 35.9431C46.1939 35.9431 45.9823 35.9431 45.7708 35.7094ZM30.3418 34.5289V42.7962C30.3418 43.4489 30.9921 44.1016 31.6424 44.1016C32.2927 44.1016 32.9431 43.4489 32.9431 42.7962V34.5289C32.9431 33.8762 32.2927 33.2235 31.6424 33.2235C30.9921 33.2235 30.3418 33.8762 30.3418 34.5289ZM46.607 42.0243C46.2044 41.3906 45.6006 41.1794 44.9968 41.6019L38.7575 45.404C38.1537 45.8265 37.9524 46.4602 38.3549 47.0939C38.5562 47.5163 38.9587 47.7276 39.3613 47.7276C39.5625 47.7276 39.7638 47.7276 39.9651 47.5163L46.2044 43.7142C46.8083 43.2917 47.0095 42.658 46.607 42.0243Z" fill="#646363"/>
<path fill-rule="evenodd" clip-rule="evenodd" d="M66.576 26.9175C66.8133 27.1656 67.0506 27.4138 67.5253 27.4138C67.7627 27.4138 68 27.1656 68 27.1656C68.4747 27.1656 68.9494 26.4213 68.9494 25.925V18.4811C68.9494 17.7367 68.2374 16.9923 67.5253 16.9923C66.8133 16.9923 66.1013 17.7367 66.1013 18.4811V21.9549L63.0158 17.7367C62.7785 17.2405 62.0665 16.9923 61.5918 17.2405C61.1171 17.2405 60.6424 17.9849 60.6424 18.4811V25.925C60.6424 26.6694 61.3545 27.4138 62.0665 27.4138C62.7785 27.4138 63.4905 26.6694 63.4905 25.925V22.6993L66.576 26.9175ZM40.7061 61.2558C40.9434 61.5039 41.1807 61.752 41.6554 61.752H42.3675C43.0795 61.5039 43.3168 61.0076 43.3168 60.5114V52.5712C43.3168 51.8269 42.6048 51.0825 41.8928 51.0825C41.1807 51.0825 40.4687 51.8269 40.4687 52.5712V56.5413L36.6713 51.5787C36.4339 51.0825 35.7219 50.8343 35.2472 51.0825C34.5352 51.3306 34.2979 51.8269 34.2979 52.3231V60.2633C34.2979 61.0076 34.7725 61.752 35.4846 61.752C36.1966 61.752 36.9086 61.0076 36.9086 60.2633V56.2932L40.7061 61.2558ZM65.9432 50.9097C65.2312 50.9097 64.5192 51.6541 64.5192 52.3985V54.8798H61.9084V52.3985C61.9084 51.6541 61.1964 50.9097 60.4844 50.9097C59.7723 50.9097 59.0603 51.6541 59.0603 52.3985V60.3386C59.0603 61.083 59.7723 61.8274 60.4844 61.8274C61.1964 61.8274 61.9084 61.083 61.9084 60.3386V57.6092H64.5192V60.3386C64.5192 61.083 65.2312 61.8274 65.9432 61.8274C66.6552 61.8274 67.3672 61.083 67.3672 60.3386V52.3985C67.3672 51.6541 66.6552 50.9097 65.9432 50.9097ZM69.4058 62H72.5653C73.04 62 73.6964 61.907 73.6964 61.1626C73.6964 60.4182 73.142 60.2631 72.6673 60.2631H71.3046C71.3046 60.2631 72.3837 59.0077 73.1903 57.9802C73.9969 56.9528 73.9 55.2473 72.1067 55.0094C70.3134 54.7716 69.2474 55.0824 68.8525 55.4975C68.5174 55.8498 68.5605 56.5287 68.5926 57.0346C68.5983 57.1246 68.6037 57.2093 68.6065 57.2856C68.6252 57.7903 70.1868 57.6532 70.2061 57.2856C70.2105 57.2027 70.2097 57.11 70.209 57.0161C70.2064 56.6936 70.2037 56.357 70.4071 56.357H71.5041C71.9632 56.357 71.9361 56.9592 71.6988 57.2073C70.0374 59.1923 68.9411 60.3387 68.9411 60.3387C68.7037 60.5868 68.4565 61.0799 68.6065 61.4437C68.7029 61.6773 68.9312 62 69.4058 62Z" fill="black"/>
<path d="M86.4755 39.8467L89.0243 32.4902H90.9579V42H89.4111V35.4434L87.0116 42H85.9482L83.496 35.2852V42H81.9491V32.4902H83.953L86.4755 39.8467ZM98.1607 42C98.067 41.7949 97.9996 41.4492 97.9586 40.9629C97.4078 41.7715 96.7047 42.1758 95.8492 42.1758C94.9879 42.1758 94.3141 41.9355 93.8277 41.4551C93.3473 40.9688 93.107 40.2861 93.107 39.4072C93.107 38.4404 93.4352 37.6729 94.0914 37.1045C94.7477 36.5361 95.6471 36.2461 96.7896 36.2344H97.9322V35.2236C97.9322 34.6553 97.8063 34.251 97.5543 34.0107C97.3023 33.7705 96.9186 33.6504 96.4029 33.6504C95.9342 33.6504 95.5533 33.791 95.2604 34.0723C94.9674 34.3477 94.8209 34.6992 94.8209 35.127H93.2652C93.2652 34.6406 93.4088 34.1777 93.6959 33.7383C93.983 33.293 94.3697 32.9443 94.8561 32.6924C95.3424 32.4404 95.8844 32.3145 96.482 32.3145C97.4547 32.3145 98.193 32.5576 98.6969 33.0439C99.2066 33.5244 99.4674 34.2275 99.4791 35.1533V39.9521C99.485 40.6846 99.5846 41.3203 99.7779 41.8594V42H98.1607ZM96.0865 40.7607C96.4674 40.7607 96.8307 40.6553 97.1764 40.4443C97.5221 40.2334 97.774 39.9697 97.9322 39.6533V37.3857H97.0533C96.315 37.3975 95.732 37.5645 95.3043 37.8867C94.8766 38.2031 94.6627 38.6484 94.6627 39.2227C94.6627 39.7617 94.7711 40.1543 94.9879 40.4004C95.2047 40.6406 95.5709 40.7607 96.0865 40.7607ZM108.589 37.7021C108.589 39.208 108.317 40.3301 107.772 41.0684C107.233 41.8066 106.468 42.1758 105.478 42.1758C104.523 42.1758 103.787 41.8154 103.272 41.0947V45.6562H101.725V32.4902H103.131L103.21 33.5449C103.732 32.7246 104.479 32.3145 105.451 32.3145C106.494 32.3145 107.274 32.6777 107.789 33.4043C108.305 34.1309 108.572 35.2178 108.589 36.665V37.7021ZM107.042 36.8145C107.042 35.748 106.878 34.9629 106.55 34.459C106.222 33.9492 105.695 33.6943 104.968 33.6943C104.224 33.6943 103.658 34.0664 103.272 34.8105V39.7588C103.653 40.4854 104.224 40.8486 104.986 40.8486C105.689 40.8486 106.204 40.5967 106.533 40.0928C106.866 39.583 107.036 38.8066 107.042 37.7637V36.8145ZM112.997 37.9482H112.118V42H110.562V32.4902H112.118V36.5156H112.892L115.484 32.4902H117.339L114.166 37.0166L117.567 42H115.616L112.997 37.9482ZM122.142 42.1758C120.959 42.1758 120.05 41.8242 119.418 41.1211C118.785 40.4121 118.463 39.375 118.451 38.0098V36.8584C118.451 35.4404 118.758 34.3301 119.374 33.5273C119.995 32.7188 120.859 32.3145 121.966 32.3145C123.08 32.3145 123.912 32.6689 124.463 33.3779C125.013 34.0869 125.295 35.1914 125.306 36.6914V37.7109H119.998V37.9307C119.998 38.9502 120.188 39.6914 120.569 40.1543C120.956 40.6172 121.509 40.8486 122.23 40.8486C122.687 40.8486 123.089 40.7637 123.434 40.5938C123.786 40.418 124.114 40.1426 124.419 39.7676L125.227 40.752C124.553 41.7012 123.525 42.1758 122.142 42.1758ZM121.966 33.6504C121.322 33.6504 120.844 33.873 120.534 34.3184C120.223 34.7578 120.048 35.4434 120.006 36.375H123.751V36.1641C123.71 35.2617 123.546 34.6172 123.258 34.2305C122.977 33.8438 122.547 33.6504 121.966 33.6504ZM133.871 37.7021C133.871 39.208 133.599 40.3301 133.054 41.0684C132.515 41.8066 131.75 42.1758 130.76 42.1758C129.805 42.1758 129.07 41.8154 128.554 41.0947V45.6562H127.007V32.4902H128.413L128.493 33.5449C129.014 32.7246 129.761 32.3145 130.734 32.3145C131.777 32.3145 132.556 32.6777 133.072 33.4043C133.587 34.1309 133.854 35.2178 133.871 36.665V37.7021ZM132.325 36.8145C132.325 35.748 132.16 34.9629 131.832 34.459C131.504 33.9492 130.977 33.6943 130.25 33.6943C129.506 33.6943 128.941 34.0664 128.554 34.8105V39.7588C128.935 40.4854 129.506 40.8486 130.268 40.8486C130.971 40.8486 131.487 40.5967 131.815 40.0928C132.149 39.583 132.319 38.8066 132.325 37.7637V36.8145ZM138.578 37.2275H134.948V35.9004H138.578V37.2275ZM91.8941 57.9482H91.0152V62H89.4596V52.4902H91.0152V56.5156H91.7887L94.3814 52.4902H96.2359L93.0631 57.0166L96.4645 62H94.5133L91.8941 57.9482ZM104.652 57.7021C104.652 59.208 104.379 60.3301 103.834 61.0684C103.295 61.8066 102.531 62.1758 101.54 62.1758C100.585 62.1758 99.8499 61.8154 99.3343 61.0947V65.6562H97.7874V52.4902H99.1936L99.2727 53.5449C99.7942 52.7246 100.541 52.3145 101.514 52.3145C102.557 52.3145 103.336 52.6777 103.852 53.4043C104.367 54.1309 104.634 55.2178 104.652 56.665V57.7021ZM103.105 56.8145C103.105 55.748 102.941 54.9629 102.613 54.459C102.284 53.9492 101.757 53.6943 101.031 53.6943C100.286 53.6943 99.721 54.0664 99.3343 54.8105V59.7588C99.7151 60.4854 100.286 60.8486 101.048 60.8486C101.751 60.8486 102.267 60.5967 102.595 60.0928C102.929 59.583 103.099 58.8066 103.105 57.7637V56.8145ZM111.371 62C111.277 61.7949 111.21 61.4492 111.169 60.9629C110.618 61.7715 109.915 62.1758 109.06 62.1758C108.198 62.1758 107.524 61.9355 107.038 61.4551C106.558 60.9688 106.317 60.2861 106.317 59.4072C106.317 58.4404 106.645 57.6729 107.302 57.1045C107.958 56.5361 108.857 56.2461 110 56.2344H111.143V55.2236C111.143 54.6553 111.017 54.251 110.765 54.0107C110.513 53.7705 110.129 53.6504 109.613 53.6504C109.144 53.6504 108.764 53.791 108.471 54.0723C108.178 54.3477 108.031 54.6992 108.031 55.127H106.476C106.476 54.6406 106.619 54.1777 106.906 53.7383C107.193 53.293 107.58 52.9443 108.066 52.6924C108.553 52.4404 109.095 52.3145 109.692 52.3145C110.665 52.3145 111.403 52.5576 111.907 53.0439C112.417 53.5244 112.678 54.2275 112.689 55.1533V59.9521C112.695 60.6846 112.795 61.3203 112.988 61.8594V62H111.371ZM109.297 60.7607C109.678 60.7607 110.041 60.6553 110.387 60.4443C110.732 60.2334 110.984 59.9697 111.143 59.6533V57.3857H110.264C109.525 57.3975 108.942 57.5645 108.515 57.8867C108.087 58.2031 107.873 58.6484 107.873 59.2227C107.873 59.7617 107.981 60.1543 108.198 60.4004C108.415 60.6406 108.781 60.7607 109.297 60.7607ZM118.231 60.8486C118.747 60.8486 119.16 60.6904 119.47 60.374C119.781 60.0518 119.951 59.5947 119.98 59.0029H121.448C121.413 59.917 121.088 60.6758 120.472 61.2793C119.863 61.877 119.116 62.1758 118.231 62.1758C117.053 62.1758 116.154 61.8066 115.533 61.0684C114.918 60.3242 114.61 59.2197 114.61 57.7549V56.709C114.61 55.2734 114.918 54.1836 115.533 53.4395C116.148 52.6895 117.045 52.3145 118.222 52.3145C119.195 52.3145 119.965 52.6221 120.534 53.2373C121.108 53.8525 121.413 54.6934 121.448 55.7598H119.98C119.945 55.0566 119.775 54.5293 119.47 54.1777C119.172 53.8262 118.756 53.6504 118.222 53.6504C117.531 53.6504 117.018 53.8789 116.684 54.3359C116.35 54.7871 116.177 55.5312 116.166 56.5684V57.7812C116.166 58.9004 116.33 59.6914 116.658 60.1543C116.992 60.6172 117.516 60.8486 118.231 60.8486ZM125.645 57.9482H124.766V62H123.21V52.4902H124.766V56.5156H125.539L128.132 52.4902H129.987L126.814 57.0166L130.215 62H128.264L125.645 57.9482ZM136.425 62C136.331 61.7949 136.264 61.4492 136.223 60.9629C135.672 61.7715 134.969 62.1758 134.113 62.1758C133.252 62.1758 132.578 61.9355 132.092 61.4551C131.611 60.9688 131.371 60.2861 131.371 59.4072C131.371 58.4404 131.699 57.6729 132.355 57.1045C133.012 56.5361 133.911 56.2461 135.054 56.2344H136.196V55.2236C136.196 54.6553 136.07 54.251 135.818 54.0107C135.566 53.7705 135.183 53.6504 134.667 53.6504C134.198 53.6504 133.817 53.791 133.524 54.0723C133.231 54.3477 133.085 54.6992 133.085 55.127H131.529C131.529 54.6406 131.673 54.1777 131.96 53.7383C132.247 53.293 132.634 52.9443 133.12 52.6924C133.606 52.4404 134.148 52.3145 134.746 52.3145C135.719 52.3145 136.457 52.5576 136.961 53.0439C137.471 53.5244 137.731 54.2275 137.743 55.1533V59.9521C137.749 60.6846 137.849 61.3203 138.042 61.8594V62H136.425ZM134.351 60.7607C134.731 60.7607 135.095 60.6553 135.44 60.4443C135.786 60.2334 136.038 59.9697 136.196 59.6533V57.3857H135.317C134.579 57.3975 133.996 57.5645 133.568 57.8867C133.141 58.2031 132.927 58.6484 132.927 59.2227C132.927 59.7617 133.035 60.1543 133.252 60.4004C133.469 60.6406 133.835 60.7607 134.351 60.7607ZM23.4456 80.1104C24.1663 80.1104 24.5325 79.6416 24.5443 78.7041H26.8821C26.8704 79.7412 26.5511 80.5791 25.9241 81.2178C25.2972 81.8564 24.4886 82.1758 23.4984 82.1758C22.2738 82.1758 21.3392 81.7949 20.6946 81.0332C20.0501 80.2715 19.722 79.1494 19.7103 77.667V76.9111C19.7103 75.417 20.0267 74.2773 20.6595 73.4922C21.2982 72.707 22.2386 72.3145 23.4808 72.3145C24.5296 72.3145 25.3558 72.6396 25.9593 73.29C26.5628 73.9346 26.8704 74.8516 26.8821 76.041H24.5443C24.5384 75.5078 24.4505 75.0977 24.2806 74.8105C24.1107 74.5234 23.8294 74.3799 23.4368 74.3799C23.0032 74.3799 22.6927 74.5352 22.5052 74.8457C22.3177 75.1504 22.2181 75.7451 22.2064 76.6299V77.5967C22.2064 78.3701 22.2445 78.9121 22.3206 79.2227C22.3968 79.5273 22.5228 79.7529 22.6986 79.8994C22.8743 80.04 23.1234 80.1104 23.4456 80.1104ZM40.3199 82H37.8326V78.3525H35.6441V82H33.148V72.4902H35.6441V76.2959H37.8326V72.4902H40.3199V82ZM47.2014 72.4902H49.6799V82H47.2014V76.1553L44.9866 82H42.4905V72.4902H44.9866V78.3262L47.2014 72.4902ZM58.7059 74.5381H56.2626V82H53.7753V74.5381H51.3495V72.4902H58.7059V74.5381ZM67.8023 77.5439C67.8023 79.0381 67.5445 80.1836 67.0288 80.9805C66.5191 81.7773 65.7573 82.1758 64.7437 82.1758C63.9702 82.1758 63.3491 81.8623 62.8804 81.2354V85.6562H60.3931V72.4902H62.6958L62.7837 73.3604C63.2583 72.6631 63.9058 72.3145 64.7261 72.3145C65.7398 72.3145 66.5015 72.6836 67.0112 73.4219C67.5269 74.1602 67.7905 75.291 67.8023 76.8145V77.5439ZM65.3237 76.9199C65.3237 76 65.2212 75.3496 65.0161 74.9688C64.8169 74.5879 64.4771 74.3975 63.9966 74.3975C63.4868 74.3975 63.1148 74.6113 62.8804 75.0391V79.4951C63.103 79.9053 63.481 80.1104 64.0142 80.1104C64.5064 80.1104 64.8462 79.9023 65.0337 79.4863C65.2271 79.0703 65.3237 78.4229 65.3237 77.5439V76.9199ZM69.3752 76.9375C69.3752 75.4961 69.715 74.3652 70.3947 73.5449C71.0744 72.7246 72.0148 72.3145 73.216 72.3145C74.4289 72.3145 75.3752 72.7246 76.0548 73.5449C76.7345 74.3652 77.0744 75.502 77.0744 76.9551V77.5615C77.0744 79.0088 76.7375 80.1396 76.0636 80.9541C75.3898 81.7686 74.4464 82.1758 73.2336 82.1758C72.0148 82.1758 71.0656 81.7686 70.3859 80.9541C69.7121 80.1338 69.3752 78.9971 69.3752 77.5439V76.9375ZM71.8712 77.5615C71.8712 79.2607 72.3253 80.1104 73.2336 80.1104C74.0714 80.1104 74.5226 79.4014 74.5871 77.9834L74.5959 76.9375C74.5959 76.0703 74.4757 75.4287 74.2355 75.0127C73.9953 74.5908 73.6554 74.3799 73.216 74.3799C72.7941 74.3799 72.463 74.5908 72.2228 75.0127C71.9884 75.4287 71.8712 76.0703 71.8712 76.9375V77.5615ZM81.9783 74.3799C81.6326 74.3799 81.3777 74.5088 81.2137 74.7666C81.0496 75.0186 80.9676 75.3584 80.9676 75.7861H78.6297C78.6297 74.79 78.9461 73.9639 79.5789 73.3076C80.2176 72.6455 81.0174 72.3145 81.9783 72.3145C83.1268 72.3145 84.0408 72.751 84.7205 73.624C85.4002 74.4912 85.74 75.6895 85.74 77.2188V77.377C85.74 78.8418 85.4002 80.0078 84.7205 80.875C84.0408 81.7422 83.1268 82.1758 81.9783 82.1758C80.9529 82.1758 80.1385 81.8389 79.535 81.165C78.9314 80.4854 78.6297 79.583 78.6297 78.458H80.9676C80.9676 78.9912 81.0584 79.4014 81.24 79.6885C81.4275 79.9756 81.6736 80.1191 81.9783 80.1191C82.7283 80.1191 83.1473 79.4102 83.2352 77.9922H81.5037V76.4365H83.2264C83.1443 75.0654 82.7283 74.3799 81.9783 74.3799ZM92.5073 78.9766L94.2914 72.4902H97.4116V82H94.9243V76.9111L93.3422 82H91.6811L90.1606 77.0781V82H87.6821V72.4902H90.7495L92.5073 78.9766ZM104.355 82C104.284 81.8535 104.214 81.6074 104.144 81.2617C103.698 81.8711 103.095 82.1758 102.333 82.1758C101.536 82.1758 100.874 81.9121 100.347 81.3848C99.8253 80.8574 99.5645 80.1748 99.5645 79.3369C99.5645 78.3408 99.8809 77.5703 100.514 77.0254C101.152 76.4805 102.069 76.2021 103.265 76.1904H104.021V75.4258C104.021 74.998 103.947 74.6963 103.801 74.5205C103.654 74.3447 103.441 74.2568 103.159 74.2568C102.538 74.2568 102.228 74.6201 102.228 75.3467H99.7403C99.7403 74.4678 100.068 73.7441 100.725 73.1758C101.387 72.6016 102.222 72.3145 103.23 72.3145C104.273 72.3145 105.078 72.5869 105.647 73.1318C106.221 73.6709 106.508 74.4443 106.508 75.4521V79.9258C106.52 80.7461 106.637 81.3877 106.859 81.8506V82H104.355ZM102.887 80.2246C103.162 80.2246 103.397 80.1689 103.59 80.0576C103.783 79.9463 103.927 79.8145 104.021 79.6621V77.6846H103.423C103.001 77.6846 102.667 77.8193 102.421 78.0889C102.181 78.3584 102.061 78.7188 102.061 79.1699C102.061 79.873 102.336 80.2246 102.887 80.2246ZM115.859 72.4902V82H113.372V74.5645H111.895L111.755 77.5C111.667 79.0234 111.394 80.1514 110.937 80.8838C110.48 81.6104 109.801 81.9824 108.898 82H108.09L108.063 79.9258L108.344 79.8906C108.678 79.8438 108.925 79.6006 109.083 79.1611C109.241 78.7217 109.343 78.001 109.39 76.999L109.557 72.4902H115.859ZM120.675 75.2588H121.95C123.069 75.2588 123.948 75.5664 124.586 76.1816C125.231 76.7969 125.553 77.6201 125.553 78.6514C125.553 79.6592 125.228 80.4707 124.577 81.0859C123.933 81.6953 123.054 82 121.941 82H118.188V72.4902H120.675V75.2588ZM120.675 77.3242V79.9521H121.976C122.322 79.9521 122.591 79.8379 122.785 79.6094C122.978 79.3809 123.075 79.0645 123.075 78.6602C123.075 77.7695 122.685 77.3242 121.906 77.3242H120.675ZM129.947 76.1289H130.773C130.932 74.957 131.342 74.0283 132.004 73.3428C132.672 72.6572 133.519 72.3145 134.544 72.3145C135.722 72.3145 136.659 72.7539 137.356 73.6328C138.054 74.5059 138.402 75.7422 138.402 77.3418C138.402 78.8125 138.057 79.9873 137.365 80.8662C136.674 81.7393 135.739 82.1758 134.562 82.1758C133.501 82.1758 132.634 81.8184 131.96 81.1035C131.292 80.3887 130.891 79.4189 130.756 78.1943H129.947V82H127.46V72.4902H129.947V76.1289ZM133.199 77.3418C133.199 79.1875 133.653 80.1104 134.562 80.1104C135.382 80.1104 135.83 79.3369 135.906 77.79L135.915 77.1572C135.915 76.2314 135.798 75.5371 135.563 75.0742C135.329 74.6113 134.989 74.3799 134.544 74.3799C133.729 74.3799 133.284 75.165 133.208 76.7354L133.199 77.3418Z" fill="black"/>
</svg>
