<svg width="160" height="100" viewBox="0 0 160 100" fill="none" xmlns="http://www.w3.org/2000/svg">
<rect x="1" y="1" width="158" height="98" rx="11" fill="white"/>
<rect x="1" y="1" width="158" height="98" rx="11" stroke="black" stroke-width="2"/>
<path fill-rule="evenodd" clip-rule="evenodd" d="M39.9427 17.7092C39.9427 18.2897 39.3622 18.8702 38.7817 18.8702C38.2012 18.8702 37.6207 18.2897 37.6207 17.7092V9.87243C37.6207 9.29193 38.2012 8.71143 38.7817 8.71143C39.3622 8.71143 39.9427 9.29193 39.9427 9.87243V17.7092ZM36.4597 83.5965H41.1038C42.555 83.5965 43.4258 84.7575 43.4258 85.9185C43.4258 87.3697 42.2648 88.2405 41.1038 88.2405H36.4597C35.2987 88.2405 34.1377 87.0795 34.1377 85.9185C34.1377 84.4672 35.2987 83.5965 36.4597 83.5965ZM15.8518 40.6392C15.8518 40.0587 15.2713 39.4781 14.6908 39.4781H8.01501C7.43451 39.4781 6.854 40.0587 6.854 40.6392C6.854 41.2197 7.43451 41.8002 8.01501 41.8002H14.9811C15.5616 41.8002 15.8518 41.2197 15.8518 40.6392ZM62.8727 39.4781H69.8387C70.4192 39.4781 70.7095 40.0587 70.9997 40.6392C70.9997 41.2197 70.4192 41.8002 69.8387 41.8002H62.8727C62.2921 41.8002 61.7116 41.2197 61.7116 40.6392C61.7116 40.0587 62.2921 39.4781 62.8727 39.4781ZM57.6481 57.764C57.0676 57.4738 56.4871 57.764 56.1969 58.0543C55.9066 58.6348 56.1969 59.2153 56.4871 59.5055L63.7434 63.8593C64.3239 64.1496 64.9044 63.8593 65.1947 63.5691C65.4849 62.9886 65.1947 62.4081 64.9044 62.1178L57.6481 57.764ZM12.659 61.8276L19.9153 57.764C20.4959 57.4738 21.0764 57.4738 21.3666 58.0543C21.6569 58.6348 21.6569 59.2153 20.7861 59.5055L13.5298 63.8593C13.2396 64.1496 12.3688 63.8593 12.3688 63.2788C12.0785 62.6983 12.0785 62.1178 12.659 61.8276ZM55.6164 23.8045L64.9044 13.6457C65.1947 13.0652 65.1947 12.4847 64.9044 12.1945C64.3239 11.9042 63.7434 11.9042 63.4532 12.1945L54.4553 22.3533C54.1651 22.9338 54.1651 23.5143 54.4553 23.8045C54.7456 24.385 55.3261 24.385 55.6164 23.8045ZM23.3984 23.8045C23.1081 24.385 22.2374 24.385 21.9471 23.8045L12.9493 13.6457C12.659 13.3555 12.659 12.4847 12.9493 12.1945C13.5298 11.6139 14.1103 11.6139 14.6908 12.1945L23.3984 22.3533C23.9789 22.6435 23.9789 23.5143 23.3984 23.8045ZM58.8091 40.3489C58.8091 35.4146 56.4871 30.7706 53.0041 27.5778C49.5211 24.385 44.5868 22.3533 39.072 22.3533C33.5572 22.3533 28.6229 24.385 24.8496 27.8681C21.3666 31.0608 19.0446 35.7049 19.0446 40.9294C19.0446 41.8002 19.0446 42.9612 19.3348 43.8319C19.9153 47.6052 21.3666 50.5077 22.8179 53.12C23.2906 53.8764 23.7634 54.6021 24.2161 55.2969L24.2162 55.297L24.2163 55.2971C25.1532 56.7351 26.0041 58.0412 26.5911 59.2153C27.1717 60.3763 27.4619 61.5373 27.4619 62.6983C27.4619 63.2788 27.7522 63.8593 28.0424 64.4398C28.3327 64.7301 28.9132 65.0203 29.4937 65.0203H47.4893C48.0698 65.0203 48.6503 64.7301 48.9406 64.4398C49.2308 64.1496 49.5211 63.5691 49.5211 62.6983C49.5211 61.5373 49.8113 60.3763 50.3918 59.2153C50.9723 58.0543 51.5528 56.8933 52.7138 55.442C52.8761 55.1716 53.0434 54.8961 53.2143 54.6147C54.878 51.8754 56.8855 48.5697 57.9384 43.8319C58.5189 42.6709 58.8091 41.5099 58.8091 40.3489ZM53.8748 43.2514C52.9496 47.3225 51.1985 50.2139 49.5241 52.9784L49.5241 52.9785C48.5722 54.5501 47.6452 56.0808 46.9088 57.764C46.7637 58.1994 46.6185 58.7073 46.4734 59.2152C46.3283 59.7232 46.1832 60.2312 46.038 60.6665H31.8157C31.5254 59.5055 31.2352 58.3445 30.6547 57.4738L28.0424 53.12C27.7522 52.6362 27.4538 52.1605 27.1555 51.6849C25.664 49.3064 24.1724 46.9279 23.6886 43.5417C23.6886 43.1063 23.6161 42.7435 23.5435 42.3807C23.4709 42.0178 23.3984 41.655 23.3984 41.2197C23.3984 37.1561 24.8496 33.6731 27.7522 31.0608C30.3644 28.1583 34.1377 26.7071 38.7817 26.7071C43.4258 26.7071 47.199 28.1583 49.8113 30.7706C52.4236 33.3829 54.1651 36.5756 54.1651 40.3489V40.3489C54.1651 41.2197 54.1651 42.0904 53.8748 43.2514ZM30.9449 72.2766H46.6185C48.0698 72.2766 48.9406 73.1474 48.9406 74.5986C48.9406 76.0499 47.7795 76.9207 46.6185 76.9207H30.9449C29.7839 76.9207 28.6229 75.7597 28.6229 74.5986C28.6229 73.1474 29.7839 72.2766 30.9449 72.2766ZM46.6185 78.0817H30.9449C29.7839 78.0817 28.6229 78.9524 28.6229 80.4037C28.6229 81.5647 29.7839 82.7257 30.9449 82.7257H46.6185C47.7795 82.7257 48.9406 81.8549 48.9406 80.4037C48.9406 78.9524 48.0698 78.0817 46.6185 78.0817ZM30.9449 66.4716H46.6185C48.0698 66.4716 48.9406 67.6326 48.9406 68.7936C48.9406 70.2449 47.7795 71.1156 46.6185 71.1156H30.9449C29.7839 71.1156 28.6229 69.9546 28.6229 68.7936C28.6229 67.3423 29.7839 66.4716 30.9449 66.4716Z" fill="black"/>
<path d="M95.0625 35.8672H91.9688L91.1797 35.5391C90.2891 35.2578 89.6068 34.8359 89.1328 34.2734C88.6641 33.7109 88.4297 32.9948 88.4297 32.125C88.4297 31.3594 88.599 30.7188 88.9375 30.2031C89.2812 29.6823 89.7656 29.2891 90.3906 29.0234C91.0208 28.7578 91.7682 28.625 92.6328 28.625H96.6016V40H94.25V30.4609H92.6328C91.9922 30.4609 91.5208 30.6198 91.2188 30.9375C90.9167 31.2552 90.7656 31.7057 90.7656 32.2891C90.7656 32.7161 90.8359 33.0677 90.9766 33.3438C91.1172 33.6146 91.3229 33.8177 91.5938 33.9531C91.8646 34.0833 92.2057 34.1484 92.6172 34.1484H95.0547L95.0625 35.8672ZM92.8047 34.9219L90.2812 40H87.7422L90.2734 34.9219H92.8047ZM100.625 33.1719V43.25H98.375V31.5469H100.461L100.625 33.1719ZM105.977 35.6797V35.8438C105.977 36.4583 105.904 37.0286 105.758 37.5547C105.617 38.0807 105.409 38.5391 105.133 38.9297C104.857 39.3151 104.513 39.6172 104.102 39.8359C103.695 40.0495 103.227 40.1562 102.695 40.1562C102.18 40.1562 101.732 40.0521 101.352 39.8438C100.971 39.6354 100.651 39.3438 100.391 38.9688C100.135 38.5885 99.9297 38.1484 99.7734 37.6484C99.6172 37.1484 99.4974 36.612 99.4141 36.0391V35.6094C99.4974 34.9948 99.6172 34.4323 99.7734 33.9219C99.9297 33.4062 100.135 32.9609 100.391 32.5859C100.651 32.2057 100.969 31.9115 101.344 31.7031C101.724 31.4948 102.169 31.3906 102.68 31.3906C103.216 31.3906 103.688 31.4922 104.094 31.6953C104.505 31.8984 104.849 32.1901 105.125 32.5703C105.406 32.9505 105.617 33.4036 105.758 33.9297C105.904 34.4557 105.977 35.0391 105.977 35.6797ZM103.719 35.8438V35.6797C103.719 35.3203 103.688 34.9896 103.625 34.6875C103.568 34.3802 103.474 34.112 103.344 33.8828C103.219 33.6536 103.052 33.4766 102.844 33.3516C102.641 33.2214 102.393 33.1562 102.102 33.1562C101.794 33.1562 101.531 33.2057 101.312 33.3047C101.099 33.4036 100.924 33.5469 100.789 33.7344C100.654 33.9219 100.552 34.1458 100.484 34.4062C100.417 34.6667 100.375 34.9609 100.359 35.2891V36.375C100.385 36.7604 100.458 37.1068 100.578 37.4141C100.698 37.7161 100.883 37.9557 101.133 38.1328C101.383 38.3099 101.711 38.3984 102.117 38.3984C102.414 38.3984 102.664 38.3333 102.867 38.2031C103.07 38.0677 103.234 37.8828 103.359 37.6484C103.49 37.4141 103.581 37.1432 103.633 36.8359C103.69 36.5286 103.719 36.1979 103.719 35.8438ZM109.773 31.5469V40H107.523V31.5469H109.773ZM115.266 31.5469L111.625 36.8359H109.375L109.102 34.7578H110.594L112.414 31.5469H115.266ZM112.516 40L110.438 36.4297L112.398 35.3438L115.531 40H112.516ZM118.617 36.8594L121.453 31.5469H123.703V40H121.453V34.6797L118.617 40H116.367V31.5469H118.617V36.8594ZM127.68 36.8594L130.516 31.5469H132.766V40H130.516V34.6797L127.68 40H125.43V31.5469H127.68V36.8594ZM130.258 28.1484H131.859C131.859 28.5964 131.747 28.9948 131.523 29.3438C131.305 29.6875 130.992 29.9583 130.586 30.1562C130.18 30.349 129.701 30.4453 129.148 30.4453C128.31 30.4453 127.646 30.2318 127.156 29.8047C126.672 29.3776 126.43 28.8255 126.43 28.1484H128.023C128.023 28.4193 128.107 28.6615 128.273 28.875C128.445 29.0885 128.737 29.1953 129.148 29.1953C129.555 29.1953 129.841 29.0885 130.008 28.875C130.174 28.6615 130.258 28.4193 130.258 28.1484ZM89.2266 62V53.5469H90.6719V60.8125H94.5625V53.5469H96.0156V62H89.2266ZM97.0156 60.8125L96.875 64.5078H95.5859V62H94.4844V60.8125H97.0156ZM102.555 58.2812H99.7812L99.7656 57.125H102.031C102.479 57.125 102.852 57.0807 103.148 56.9922C103.451 56.9036 103.677 56.7708 103.828 56.5938C103.979 56.4167 104.055 56.1979 104.055 55.9375C104.055 55.7344 104.01 55.5573 103.922 55.4062C103.839 55.25 103.711 55.1224 103.539 55.0234C103.367 54.9193 103.154 54.8438 102.898 54.7969C102.648 54.7448 102.354 54.7188 102.016 54.7188H100.164V62H98.7188V53.5469H102.016C102.552 53.5469 103.034 53.5938 103.461 53.6875C103.893 53.7812 104.26 53.9245 104.562 54.1172C104.87 54.3047 105.104 54.5443 105.266 54.8359C105.427 55.1276 105.508 55.4714 105.508 55.8672C105.508 56.1224 105.456 56.3646 105.352 56.5938C105.247 56.8229 105.094 57.026 104.891 57.2031C104.688 57.3802 104.438 57.526 104.141 57.6406C103.844 57.75 103.503 57.8203 103.117 57.8516L102.555 58.2812ZM102.555 62H99.2578L99.9766 60.8281H102.555C102.956 60.8281 103.289 60.7786 103.555 60.6797C103.82 60.5755 104.018 60.4297 104.148 60.2422C104.284 60.0495 104.352 59.8203 104.352 59.5547C104.352 59.2891 104.284 59.0625 104.148 58.875C104.018 58.6823 103.82 58.5365 103.555 58.4375C103.289 58.3333 102.956 58.2812 102.555 58.2812H100.359L100.375 57.125H103.117L103.641 57.5625C104.104 57.599 104.497 57.7135 104.82 57.9062C105.143 58.099 105.388 58.3438 105.555 58.6406C105.721 58.9323 105.805 59.25 105.805 59.5938C105.805 59.9896 105.729 60.3385 105.578 60.6406C105.432 60.9427 105.219 61.1953 104.938 61.3984C104.656 61.5964 104.315 61.7474 103.914 61.8516C103.513 61.9505 103.06 62 102.555 62ZM111.25 62.1562C110.661 62.1562 110.128 62.0573 109.648 61.8594C109.174 61.6562 108.766 61.3724 108.422 61.0078C108.083 60.6432 107.823 60.2109 107.641 59.7109C107.458 59.2109 107.367 58.6641 107.367 58.0703V57.7422C107.367 57.0547 107.469 56.4427 107.672 55.9062C107.875 55.3646 108.151 54.9062 108.5 54.5312C108.849 54.1562 109.245 53.8724 109.688 53.6797C110.13 53.487 110.589 53.3906 111.062 53.3906C111.667 53.3906 112.188 53.4948 112.625 53.7031C113.068 53.9115 113.43 54.2031 113.711 54.5781C113.992 54.9479 114.201 55.3854 114.336 55.8906C114.471 56.3906 114.539 56.9375 114.539 57.5312V58.1797H108.227V57H113.094V56.8906C113.073 56.5156 112.995 56.151 112.859 55.7969C112.729 55.4427 112.521 55.151 112.234 54.9219C111.948 54.6927 111.557 54.5781 111.062 54.5781C110.734 54.5781 110.432 54.6484 110.156 54.7891C109.88 54.9245 109.643 55.1276 109.445 55.3984C109.247 55.6693 109.094 56 108.984 56.3906C108.875 56.7812 108.82 57.2318 108.82 57.7422V58.0703C108.82 58.4714 108.875 58.849 108.984 59.2031C109.099 59.5521 109.263 59.8594 109.477 60.125C109.695 60.3906 109.958 60.599 110.266 60.75C110.578 60.901 110.932 60.9766 111.328 60.9766C111.839 60.9766 112.271 60.8724 112.625 60.6641C112.979 60.4557 113.289 60.1771 113.555 59.8281L114.43 60.5234C114.247 60.7995 114.016 61.0625 113.734 61.3125C113.453 61.5625 113.107 61.7656 112.695 61.9219C112.289 62.0781 111.807 62.1562 111.25 62.1562ZM119.578 53.5469V62H118.125V53.5469H119.578ZM122.414 53.5469V54.7188H115.344V53.5469H122.414Z" fill="black"/>
</svg>
